<svg xmlns="http://www.w3.org/2000/svg" version="1.1" xmlns:xlink="http://www.w3.org/1999/xlink" xmlns:svgjs="http://svgjs.com/svgjs" width="512" height="512" x="0" y="0" viewBox="0 0 512 512" style="enable-background:new 0 0 512 512" xml:space="preserve" class=""><g><path d="M73.754 384.145c-15.655 0-28.392 12.741-28.392 28.402 0 15.661 12.736 28.402 28.392 28.402 15.656 0 28.393-12.741 28.393-28.402 0-15.661-12.738-28.402-28.393-28.402zm0 41.804c-7.384 0-13.392-6.013-13.392-13.402s6.008-13.402 13.392-13.402c7.385 0 13.393 6.013 13.393 13.402s-6.008 13.402-13.393 13.402zM389.648 440.95c15.655 0 28.392-12.741 28.392-28.402 0-15.661-12.736-28.402-28.392-28.402-15.656 0-28.393 12.741-28.393 28.402 0 15.66 12.737 28.402 28.393 28.402zm0-41.805c7.384 0 13.392 6.013 13.392 13.402s-6.008 13.402-13.392 13.402c-7.385 0-13.393-6.013-13.393-13.402s6.008-13.402 13.393-13.402zM106.616 395.087a7.502 7.502 0 0 0-1.123 6.673 36.36 36.36 0 0 1 1.627 10.787c0 3.68-.548 7.31-1.628 10.788a7.501 7.501 0 0 0 7.163 9.724h238.09a7.501 7.501 0 0 0 7.163-9.724 36.345 36.345 0 0 1-1.628-10.788c0-3.681.548-7.31 1.628-10.787a7.5 7.5 0 0 0-7.163-9.725h-238.09a7.504 7.504 0 0 0-6.039 3.052zm15.212 11.948h219.747a51.868 51.868 0 0 0 0 11.024H121.827a51.868 51.868 0 0 0 .001-11.024zM200.532 282.232c-4.143 0-7.5 3.357-7.5 7.5s3.357 7.5 7.5 7.5h17.454c4.143 0 7.5-3.357 7.5-7.5s-3.357-7.5-7.5-7.5h-17.454zM42.685 309.01a7.502 7.502 0 0 0 6.745-4.211l17.707-36.26a7.5 7.5 0 0 0-13.478-6.582l-17.707 36.26a7.5 7.5 0 0 0 6.733 10.793zM78.156 309.01a7.5 7.5 0 0 0 6.745-4.211l17.708-36.26a7.5 7.5 0 0 0-3.448-10.03 7.497 7.497 0 0 0-10.03 3.448l-17.708 36.26a7.5 7.5 0 0 0 3.448 10.03 7.463 7.463 0 0 0 3.285.763zM113.63 309.01a7.5 7.5 0 0 0 6.745-4.211l17.708-36.26a7.5 7.5 0 0 0-13.478-6.582l-17.708 36.26a7.5 7.5 0 0 0 3.448 10.03 7.456 7.456 0 0 0 3.285.763z" fill="#f49121" data-original="#000000" class=""></path><path d="m509.26 266.282-18.479-42.803a7.508 7.508 0 0 0-.316-.643l-31.619-75.539a7.499 7.499 0 1 0-13.835 5.791l29.065 69.437-9.933 4.293-66.422-127.525-.001-.001-1.469-2.822-8.789-16.876-.022-.049a12.77 12.77 0 0 1-.554-1.234c-.053-.138-.093-.279-.141-.418a12.129 12.129 0 0 1-.288-.922c-.038-.147-.067-.295-.1-.443-.071-.32-.133-.641-.178-.966a12.289 12.289 0 0 1-.112-1.473 12.394 12.394 0 0 1 .746-4.47 12.244 12.244 0 0 1 6.915-7.201c6.267-2.579 13.498.412 16.117 6.667l23.474 56.079c1.6 3.822 5.998 5.623 9.813 4.022a7.498 7.498 0 0 0 4.022-9.813l-23.474-56.08c-5.792-13.838-21.79-20.454-35.661-14.746a27.436 27.436 0 0 0-15.298 15.927 27.173 27.173 0 0 0-1.163 4.215l-114.051 46.925a42.407 42.407 0 0 0-5.946-.427h-30.359c-10.721 0-19.443 8.725-19.443 19.449v32.216h-20.137c-9.563 0-17.344 7.782-17.344 17.349v42.598a2.35 2.35 0 0 1-2.344 2.349H17.344C7.78 229.149 0 236.931 0 246.497v18.196c0 4.143 3.357 7.5 7.5 7.5s7.5-3.357 7.5-7.5v-18.196a2.35 2.35 0 0 1 2.344-2.349h144.591c9.563 0 17.344-7.782 17.344-17.349v-42.598a2.35 2.35 0 0 1 2.344-2.349h109.819c1.096 0 2.075.612 2.557 1.599l22.802 46.722a9.91 9.91 0 0 1 .996 4.314v90.862a2.852 2.852 0 0 1-2.846 2.852H17.344A2.35 2.35 0 0 1 15 325.852v-30.94c0-4.143-3.357-7.5-7.5-7.5s-7.5 3.357-7.5 7.5v30.94c0 9.566 7.78 17.349 17.344 17.349h132.051v16.386H66.702c-29.195 0-52.948 23.752-52.948 52.97 0 29.195 23.752 52.948 52.948 52.948H396.7c29.195 0 52.948-23.752 52.948-52.971 0-29.194-23.752-52.947-52.948-52.947h-91.296v-16.386h9.547c9.84 0 17.846-8.008 17.846-17.852v-90.862c0-3.752-.87-7.518-2.516-10.892l-22.802-46.723c-2.627-5.384-7.855-9.076-13.712-9.86v-3.837l94.149-50.237 62.418 119.846-70.406 30.427c-4.766 2.061-7.753 6.565-7.796 11.758a12.931 12.931 0 0 0 7.601 11.886l67.787 30.636a33.198 33.198 0 0 0 13.767 2.967c4.587 0 9.048-.923 13.26-2.742l17.278-7.467c16.923-7.312 24.744-27.037 17.435-43.967zm-344.865 76.92h126.009v16.386H164.395v-16.386zm232.304 31.387c20.924 0 37.949 17.022 37.949 37.97 0 20.924-17.023 37.948-37.948 37.948H66.702c-20.924 0-37.948-17.023-37.948-37.971 0-20.924 17.023-37.947 37.948-37.947H396.699zM278.763 157.41v9.445H216.76v-32.217a4.451 4.451 0 0 1 4.443-4.449h30.359c1.851 0 3.659.188 5.407.542.68.137 1.346.307 2.005.494.154.044.308.085.461.131a27.032 27.032 0 0 1 2.364.841c.549.224 1.09.461 1.62.719.204.099.403.206.604.31a26.223 26.223 0 0 1 2.006 1.149c.409.258.81.527 1.203.806.179.127.36.25.535.381a27.467 27.467 0 0 1 1.829 1.494c.461.41.91.833 1.341 1.273.098.1.193.203.29.305a27.136 27.136 0 0 1 1.371 1.541c.474.58.925 1.18 1.35 1.798l.024.034c.424.617.822 1.253 1.195 1.905l.035.061a27.185 27.185 0 0 1 3.44 10.928c.009.096.014.192.022.289.06.733.098 1.472.098 2.218v.002zm13.676-10.527a42.095 42.095 0 0 0-7.686-15.507c-.089-.113-.176-.226-.266-.339a42.944 42.944 0 0 0-1.263-1.501 47.633 47.633 0 0 0-.736-.818 41.356 41.356 0 0 0-.646-.678c-.206-.213-.411-.427-.622-.636-.332-.33-.673-.651-1.016-.969-.109-.101-.214-.205-.324-.305a42.345 42.345 0 0 0-2.809-2.343l96.042-39.516c.026.064.061.125.088.189.292.698.605 1.389.957 2.064l6.829 13.112-88.548 47.247zm193.435 149.599-17.278 7.467a18.507 18.507 0 0 1-14.896-.123l-63.512-28.704 72.907-31.507a7.67 7.67 0 0 0 .617-.23l16.275-7.06 15.502 35.904c4.032 9.337-.282 20.218-9.615 24.253z" fill="#f49121" data-original="#000000" class=""></path><path d="M295.424 272.235v-.001c5.32 0 9.648-4.329 9.648-9.649v-25.906c0-1.45-.335-2.909-.978-4.232l-17.335-35.521a9.708 9.708 0 0 0-8.671-5.417h-76.61c-5.32 0-9.648 4.329-9.648 9.649v35.286a9.719 9.719 0 0 0 2.867 6.864l26.456 26.143a9.592 9.592 0 0 0 6.78 2.784h67.491zm-88.594-38.026v-27.701h67.915l15.327 31.406v19.32h-59.94l-23.302-23.025z" fill="#f49121" data-original="#000000" class=""></path></g></svg>