<svg xmlns="http://www.w3.org/2000/svg" version="1.1" xmlns:xlink="http://www.w3.org/1999/xlink" xmlns:svgjs="http://svgjs.com/svgjs" width="512" height="512" x="0" y="0" viewBox="0 0 24 24" style="enable-background:new 0 0 512 512" xml:space="preserve" class=""><g><path d="M23.621 15.089h-.286v-2.367a.399.399 0 0 0-.111-.276l-2.358-2.469a.4.4 0 0 0-.289-.124h-5.116V3.844a.38.38 0 0 0-.38-.38h-7.74a.392.392 0 0 0-.39.39v1.55a.388.388 0 0 0 .38.39h.34l-.29 2.32H5.388V5.436a1.562 1.562 0 0 0-1.561-1.561.4.4 0 1 0 0 .8c.42 0 .761.341.761.761v2.678H3.081a.41.41 0 0 0-.28.11l-1.93 1.94a.399.399 0 0 0-.12.27v.78h-.38a.383.383 0 0 0-.39.374v3.106c0 .215.175.39.39.39h1.48a3.864 3.864 0 0 0 5.86 4.64h5.82a.39.39 0 0 0 .39-.39v-1.145h1.08a3.873 3.873 0 0 0 7.118 0h1.5a.4.4 0 0 0 .4-.4v-2.3a.4.4 0 0 0-.398-.4zm-8.47-3.015a1.06 1.06 0 0 0 .31-.75v-.671h4.945l2.129 2.23v2.206h-.424a3.866 3.866 0 0 0-7.109 0h-1.081v-1.785zm6.073 3.015h-5.335a3.075 3.075 0 0 1 5.335 0zM10.251 9.964l-1.25-1.24a.414.414 0 0 0-.58.591l.33.33-.8.79-.09.09.008-.066v-.024l.1-.77v-.018l.432-3.479.05-.369h6.24v5.42h-6.36l.53-.52.26-.26.21-.21.21.21.13.13a.423.423 0 0 0 .59-.01.354.354 0 0 0 .07-.12.413.413 0 0 0-.08-.475zm-2.53-5.72h6.97v.77h-6.97zm-6.19 6.355 1.708-1.713.002-.002h4.04l-.289 2.325H1.531zm5.91 8.355-.11.09a3.052 3.052 0 1 1 .11-.09zm5.7 0h-4.65a.052.052 0 0 0 .02-.04c.169-.229.312-.476.425-.737h4.205zm-3.96-1.555a3.833 3.833 0 0 0-1.47-3.869h5.43v3.869zm4.19-4.645h-8.36v.02a3.9 3.9 0 0 0-2.7 1.53H.751v-2.32h13.39zm5.191 6.98a3.088 3.088 0 0 1-2.672-1.545h5.343a3.086 3.086 0 0 1-2.671 1.545zm4.659-2.346H21.87a.262.262 0 0 0-.056 0h-6.506a.253.253 0 0 0-.055 0h-1.332v-1.5h9.3z" fill="#f49121" data-original="#000000"></path><circle cx="18.613" cy="16.639" r=".328" fill="#f49121" data-original="#000000"></circle><path d="M12.135 14.342a.28.28 0 0 0-.041 0h-1.775a.415.415 0 1 0 0 .827h1.775a.415.415 0 0 0 .041-.827zM12.094 15.753h-1.775a.414.414 0 1 0 0 .828h1.775a.414.414 0 1 0 0-.828zM5.401 14.304a2.325 2.325 0 1 0 2.32 2.33v-.01a2.322 2.322 0 0 0-2.32-2.32zm1.426 2.927a1.549 1.549 0 0 1-2.976-.607c.01-.85.7-1.535 1.55-1.54a1.55 1.55 0 0 1 1.252.64c.322.436.388 1.01.174 1.507z" fill="#f49121" data-original="#000000"></path></g></svg>