<svg xmlns="http://www.w3.org/2000/svg" version="1.1" xmlns:xlink="http://www.w3.org/1999/xlink" xmlns:svgjs="http://svgjs.com/svgjs" width="512" height="512" x="0" y="0" viewBox="0 0 64 64" style="enable-background:new 0 0 512 512" xml:space="preserve" class=""><g><path d="M62 17h-8v-4h1a1 1 0 0 0 1-1v-2h4a1 1 0 0 0 1-1V1h-2v7h-3V6a1 1 0 0 0-1-1H37a1 1 0 0 0-1 1v6a1 1 0 0 0 1 1h1v4H2a1 1 0 0 0-1 1v40a1 1 0 0 0 1 1h1v3a1 1 0 0 0 1 1h8a1 1 0 0 0 1-1v-3h38v3a1 1 0 0 0 1 1h8a1 1 0 0 0 1-1v-3h1a1 1 0 0 0 1-1V18a1 1 0 0 0-1-1zM38 7h16v4H38zm14 6v4H40v-4zM11 61H5v-2h6zm48 0h-6v-2h6zm2-4H3v-2h58zM11 45H7v-2h4zm0-13H7v-2h4zm2 21V23h16v30zm18 0V23h2v30zm4 0V23h22v30zm26 0h-2V22a1 1 0 0 0-1-1H12a1 1 0 0 0-1 1v6H6a1 1 0 0 0-1 1v4a1 1 0 0 0 1 1h5v7H6a1 1 0 0 0-1 1v4a1 1 0 0 0 1 1h5v6H3V19h58z" fill="#f49121" data-original="#000000" class=""></path><path d="m40.68 34 2.19.73-.87 5.11a1 1 0 0 0 .57 1.07 1 1 0 0 0 1.18-.25l6-7a1 1 0 0 0 .2-.92 1 1 0 0 0-.64-.68l-1.61-.54 4.06-4.87A1 1 0 0 0 51 25h-6a1 1 0 0 0-.87.51l-4 7a1 1 0 0 0-.06.85 1 1 0 0 0 .61.64zm4.9-7h3.28l-3.63 4.36a1 1 0 0 0-.19.92 1 1 0 0 0 .64.67l1.59.53-2.69 3.15.42-2.46a1 1 0 0 0-.67-1.11l-1.85-.62zM37 45h18v2H37zM37 49h18v2H37zM26 25H16a1 1 0 0 0-1 1v6a1 1 0 0 0 1 1h10a1 1 0 0 0 1-1v-6a1 1 0 0 0-1-1zm-1 6h-8v-4h8zM15 45h12v2H15zM15 41h12v2H15zM15 49h4v2h-4zM23 49h4v2h-4z" fill="#f49121" data-original="#000000" class=""></path></g></svg>