<svg xmlns="http://www.w3.org/2000/svg" version="1.1" xmlns:xlink="http://www.w3.org/1999/xlink" xmlns:svgjs="http://svgjs.com/svgjs" width="512" height="512" x="0" y="0" viewBox="0 0 512 512" style="enable-background:new 0 0 512 512" xml:space="preserve" class=""><g><path d="M121.879 327.531c-4.887 0-8.43 4.574-7.3 9.27.28 1.148.421 2.351.421 3.539-.012 8.262-6.738 14.992-15 15-8.262-.008-14.98-6.738-15-15 .02-8.258 6.738-14.98 15-15 4.14 0 7.5-3.36 7.5-7.5 0-4.13-3.36-7.5-7.5-7.5-16.55 0-30 13.39-30 30 0 16.598 13.438 30 30 30 16.531 0 30-13.371 30-30 0-2.38-.281-4.758-.84-7.07a7.475 7.475 0 0 0-7.281-5.739zM347.11 327.738c-4.02.973-6.5 5.043-5.532 9.063.281 1.148.422 2.34.422 3.539-.02 8.262-6.75 14.992-15 15-8.262-.008-14.988-6.738-15-15 .012-8.258 6.738-14.98 15-15 4.129 0 7.5-3.36 7.5-7.5 0-4.13-3.371-7.5-7.5-7.5-8.02 0-15.55 3.12-21.21 8.789-5.669 5.66-8.79 13.203-8.79 21.21 0 16.567 13.402 30 30 30 16.574 0 29.98-13.402 30-30 0-2.378-.281-4.757-.84-7.058a7.488 7.488 0 0 0-9.05-5.543zM452.11 327.738c-4.02.973-6.5 5.043-5.532 9.063.281 1.148.422 2.34.422 3.539-.02 8.262-6.75 14.992-15 15-8.262-.008-14.988-6.738-15-15 .012-8.258 6.738-14.98 15-15 4.129 0 7.5-3.36 7.5-7.5 0-4.13-3.371-7.5-7.5-7.5-16.594 0-30 13.437-30 30 0 16.566 13.402 30 30 30 16.574 0 29.98-13.403 30-30 0-2.38-.281-4.758-.84-7.059a7.488 7.488 0 0 0-9.05-5.543zm0 0" fill="#f49121" data-original="#000000" class=""></path><path d="M489.5 280.34H263.496c0-8.25 0-207.445.004-218.426a17.446 17.446 0 0 1 13.434-17.023c6.808-1.63 11.566-7.63 11.566-14.594V15.012a15.02 15.02 0 0 0-5.27-11.426A14.916 14.916 0 0 0 271.188.184c-14.528 2.3-27.856 9.746-37.528 20.96a62.45 62.45 0 0 0-15.16 40.77h-20.004c-30.543 0-55.832 22.941-59.531 52.5h-7.957c-17.668 0-32.711 12.035-36.586 29.274l-14.426 64.144H36c-15.164 0-27.5 12.336-27.5 27.5v69.012c-5.02 2.43-8.5 7.558-8.5 13.496v15c0 8.273 6.73 15 15 15h25.484c3.707 29.555 28.973 52.5 59.516 52.5s55.813-22.945 59.516-52.5h107.968c3.707 29.555 28.973 52.5 59.516 52.5 22.566 0 42.258-12.528 52.5-30.992 10.242 18.46 29.934 30.992 52.5 30.992 30.574 0 55.863-22.996 59.527-52.594C502.984 346.715 512 337.062 512 325.34v-22.5c0-12.406-10.094-22.5-22.5-22.5zm-216-265.328-.055 15.289A32.4 32.4 0 0 0 248.5 61.914h-15c0-23.129 17.21-43.297 40-46.902zM40.477 332.84H15v-15h29.387a59.24 59.24 0 0 0-3.91 15zM100 385.34c-24.813 0-45-20.188-45-45 0-25.012 20.473-45 45-45 24.813 0 45 20.187 45 45s-20.188 45-45 45zm59.516-52.5c-3.707-29.555-28.973-52.5-59.516-52.5-18.215 0-35.414 8.348-46.781 22.5H23.5v-67.508c0-6.894 5.605-12.5 12.5-12.5h49.996a7.502 7.502 0 0 0 7.32-5.855l15.739-70c2.328-10.34 11.355-17.563 21.953-17.563h14.879c.039 0 .074.008.113.008 4.152 0 7.5-3.406 7.5-7.512 0-24.789 20.164-44.996 44.996-44.996h50v37.496H176c-4.14 0-7.5 3.371-7.5 7.5 0 4.14 3.36 7.512 7.5 7.512h72.5V287.84c0 4.144 3.355 7.5 7.5 7.5h31.375c-10.71 9.441-18.027 22.633-19.89 37.5zM327 385.34c-24.813 0-45-20.188-45-45s20.184-45 44.996-45H327c24.812 0 45 20.187 45 45 0 24.816-20.188 45-45 45zm52.5-74.004a60.445 60.445 0 0 0-12.879-15.996h25.754a60.431 60.431 0 0 0-12.875 15.996zM432 385.34c-24.813 0-45-20.188-45-45s20.184-45 44.996-45H432c24.812 0 45 20.187 45 45 0 24.816-20.188 45-45 45zm65-60c0 3.45-2.344 6.355-5.52 7.226-1.921-14.753-9.214-27.84-19.859-37.226H489.5c4.137 0 7.5 3.363 7.5 7.5zm0 0" fill="#f49121" data-original="#000000" class=""></path><path d="M236 302.84h-27.46l.003-150.926a7.5 7.5 0 0 0-7.5-7.5h-71.824a7.497 7.497 0 0 0-7.317 5.856l-14.261 63.418c-.5 2.222.039 4.55 1.46 6.328a7.492 7.492 0 0 0 5.856 2.816h78.582v80.008h-11.758c-11.105-24.14-32.261-42.09-57.531-49.184v-8.328c0-4.129-3.371-7.5-7.5-7.5s-7.488 3.36-7.5 7.48V259.548c0 3.543 2.512 6.633 5.98 7.351 24.52 5.063 45.45 22.762 54.622 46.18 1.109 2.852 3.918 4.762 6.976 4.762H236a7.5 7.5 0 1 0 0-15zm-42.457-95.008h-69.211l10.887-48.418h58.324zm0 0" fill="#f49121" data-original="#000000" class=""></path></g></svg>