<?xml version="1.0" encoding="UTF-8"?>
<!DOCTYPE svg PUBLIC "-//W3C//DTD SVG 1.1//EN" "http://www.w3.org/Graphics/SVG/1.1/DTD/svg11.dtd">
<!-- Creator: CorelDRAW 2019 (64-Bit) -->
<svg xmlns="http://www.w3.org/2000/svg" xml:space="preserve" width="4.746in" height="3.175in" version="1.1" style="shape-rendering:geometricPrecision; text-rendering:geometricPrecision; image-rendering:optimizeQuality; fill-rule:evenodd; clip-rule:evenodd"
viewBox="0 0 4746 3175"
 xmlns:xlink="http://www.w3.org/1999/xlink"
 xmlns:xodm="http://www.corel.com/coreldraw/odm/2003">
 <defs>
  <style type="text/css">
   <![CDATA[
    .fil2 {fill:none}
    .fil0 {fill:#FEFEFE}
    .fil19 {fill:#1D3871}
    .fil11 {fill:#1E3771}
    .fil14 {fill:#1E3871}
    .fil6 {fill:#27B7BD}
    .fil5 {fill:#27B8BD}
    .fil8 {fill:#29367B}
    .fil3 {fill:#2F87C8}
    .fil9 {fill:#2F88C7}
    .fil18 {fill:#57B65E}
    .fil16 {fill:#58B75D}
    .fil1 {fill:#717982}
    .fil4 {fill:#71B944}
    .fil7 {fill:#71BA44}
    .fil12 {fill:#B1ADB3}
    .fil13 {fill:#B1AEB3}
    .fil17 {fill:#CED932}
    .fil10 {fill:#CFDA33}
    .fil15 {fill:#D0DA32}
   ]]>
  </style>
 </defs>
 <g id="Layer_x0020_1">
  <metadata id="CorelCorpID_0Corel-Layer"/>
  <path class="fil0" d="M3698.17 1578.09c0,-302.33 289.77,-442.5 510.83,-337.14 42.24,20.13 72.15,45.98 103.88,77.52 127.34,126.61 134.83,377.61 1.92,521.17 -134.25,145.01 -370.42,146.62 -515.4,0.03 -26.91,-27.22 -56.46,-74.37 -70.96,-110.43 -16.27,-40.44 -30.27,-93.46 -30.27,-151.14l0 -0.01zm-274.04 -15.43c0,109.76 16.06,197.1 57.83,281.81 39.47,80.01 69.12,116.73 128.38,176.53 223.26,225.3 661.02,226.85 885.82,0 60.41,-60.96 89.27,-94.45 130.94,-177.83 97.43,-194.87 72.85,-446.05 -52.81,-624.02 -23,-32.58 -44.17,-53.79 -72.36,-82.02 -269.16,-269.61 -811.38,-235.31 -1018.65,175.93 -31.27,62.04 -59.17,158.16 -59.17,249.61l0.01 -0z"/>
  <path class="fil0" d="M3080.62 1126.51l-3.86 3.85 3.86 -3.85zm-3.86 3.85c-12.98,19.4 -348.43,355.76 -358.96,362.82 6.23,12.98 14.59,54.54 18.52,70.26 6.16,24.65 12.55,45.82 17.57,71.2 4.01,20.25 -2.09,22.67 17.57,24.89 10.3,1.16 34.76,-0.36 46.69,-0.37 33.14,-0.02 61.78,0.35 89.39,3.25 92.3,9.68 202.45,34.72 192.26,166.47 -11.02,142.58 -217.7,162.99 -355.78,70.38 -30.12,-20.2 -76.58,-57.15 -95.7,-85.7l-181.41 169.83c20.92,31.24 51.2,57.72 80.48,81.62 131.64,107.48 330.3,149.69 498.24,114.98 72.48,-14.97 125.87,-42.39 181.71,-84.61 44.62,-33.74 88.34,-97.83 109.09,-157.23 63.02,-180.31 -0.11,-371.58 -183,-440.61 -24.96,-9.43 -76.54,-27.51 -107.57,-27.51 6.02,-22.54 77.21,-78.85 95.56,-97.43l123.45 -119.7c95.04,-96.16 74.32,-12.25 74.32,-269.2l-802.82 0 0 227.72 386.14 0.17c54.98,0.34 107.65,-68.78 154.23,-81.22l0.01 -0z"/>
  <path class="fil0" d="M340.21 2018.1l-7.72 3.86 7.72 -3.86zm0 0c7.97,-11.9 165.7,-131.97 189.68,-149.98 78.65,-59.01 216.32,-162.59 282.25,-231.09 9.14,-9.49 10.49,-13.83 19.22,-23.22 49,-52.67 88.83,-127.07 99.25,-201.8 6.69,-48.02 6.85,-120.38 -2.87,-162.84 -77.03,-336.29 -535.9,-344.56 -723.6,-169.94 -9.38,8.72 -13.73,10.11 -23.22,19.23 -19.07,18.33 -93.63,98.87 -95.46,120.69 17.11,4.57 147.98,120.43 181.41,142.81 33.03,-24.21 102.32,-159.32 247.11,-158.43 137.09,0.83 183.09,124.52 137.28,234.06 -13.2,31.58 -60.52,93.29 -86.62,114.08l-53.46 46.89c-10.17,8.59 -16.37,14.28 -26.98,23.19l-253.29 206.02c-37.93,30.57 -73.44,59.11 -109.85,90.85 -70.02,61.02 -54.89,23.9 -54.89,149.67 0,14.6 -2.59,91.43 1.78,98.58 8.57,14.02 75.12,5.64 94.71,5.64l760.7 0.33c24.69,0.27 26.95,2.04 27.12,-23.05 0.49,-68.08 -0.45,-136.82 -0.45,-205.02l-424.59 -0.03c-44.06,-0.28 -37.9,1.58 -68.17,16.75 -25.5,12.79 -94.86,51.44 -117.08,56.61l0.02 0.01z"/>
  <path class="fil0" d="M2887.63 273.5l0 297.2c0,31.59 5.96,45.39 11.57,69.47 -91.08,0 -150.89,6.13 -205.19,-34.12 -106.66,-79.07 -107,-242.26 0,-321.6 55.27,-40.98 121.11,-30.26 212.91,-30.26 -0.7,0.61 -1.96,0.4 -2.3,1.55 -0.34,1.16 -1.84,1.23 -2.31,1.55 -1.87,1.28 -5.96,3.83 -6.9,4.67 -5.85,5.23 -7.76,-0.88 -7.76,11.52l-0.01 0.01zm-104.22 416.85l123.51 0 0 -34.73c11.63,13.38 23.22,26.98 44.66,32.54 48.23,12.48 869.01,6.06 985.89,6.06l0 -494.04 -54.04 0 0 440.01 -698.61 0c-38.79,0.01 -64.95,-4.07 -100.33,-3.88 -60.96,0.32 -119.52,12.43 -135.13,-19.25 -14.83,-30.07 -7.71,-356.32 -7.71,-416.87 -78.47,0 -169.77,-9.14 -241.59,20.87 -52.27,21.85 -96.37,68.41 -119.98,119.33 -41,88.46 -27.67,200.97 38.25,271.88 35.2,37.85 93.89,78.1 165.06,78.1l0.02 -0.01z"/>
  <path class="fil0" d="M3918.18 2728.29c-106.76,0 -99.02,-154.39 -3.86,-154.39 102.11,0 102.12,154.39 3.86,154.39zm285.62 -154.39c20.97,0 43.92,10.98 55.04,22.16 41.07,41.3 27.09,132.22 -58.89,132.22 -94.89,0 -96.78,-154.39 3.86,-154.39l-0.01 0.01zm-1049.85 54.04c0,-44.57 35.71,-73.33 81.06,-73.33l27.02 0 0 138.95 -38.59 0c-36.85,0 -69.47,-28.37 -69.47,-65.62l-0.01 0zm196.85 -57.9c0,6.39 8.75,21.68 11.58,27.02 42.46,0 84.93,0.16 127.39,-0.02 85.21,-0.33 77.19,20.19 77.19,96.51l-274.05 0 0 -169.82 -57.89 0c-54.36,0 -111.94,39.53 -111.94,92.63 0,38.55 4.57,66.49 41.56,89.66 22.06,13.81 55.08,22.02 89.52,22.42l563.95 -0.43c51.7,0.02 15.86,31.15 107.8,31.15 37.25,0 64.21,-30.88 73.33,-30.88l115.79 0c33.07,0 14.86,30.88 100.35,30.88 40.67,0 60.29,-30.88 73.33,-30.88l146.67 0 0 -270.19 -30.88 0 0 235.44 -100.35 0c46.96,-97.85 -89.25,-208.99 -178.69,-116.93 -37.25,38.34 -31.27,77.21 -22.02,116.93l-88.77 0c16.85,-31.86 9.04,-74.41 -9.33,-102.59 -60.65,-93.03 -199.09,-39.99 -199.09,56.28 0,17.5 4.37,31.95 7.72,46.31l-88.78 0 0 -235.44 -34.73 0 0 235.44 -92.63 0c0,-43.54 8.71,-124.08 -69.36,-127.49 -45.56,-2 -96.73,0.11 -142.93,0.11 12.63,-23.87 48.44,-84.04 54.04,-108.08l-34.74 0c-6.27,26.91 -54.04,94.8 -54.04,111.93l-0.01 0.02z"/>
  <path class="fil0" d="M749.34 2554.6l27.02 0 0 138.95 -42.46 0c-90.33,0 -95.42,-138.95 15.44,-138.95l0.01 0zm243.15 138.95l-54.03 0c-9.08,-38.96 -33.54,-73.6 -42.46,-111.93 50.91,-34.09 84.86,-38.8 142.81,0l-46.32 111.93zm609.84 0c-27.44,0 -94.51,7.77 -108.15,-22.86 -7.44,-16.71 0.07,1.76 0.07,-15.73l0 -111.93 -30.88 0c0,109.56 14.43,154.39 -65.62,154.39 -17.23,0 -36.94,-15.62 -42.5,-26.96 -9.1,-18.51 -3.81,-101 -3.81,-127.42l-34.73 0c0,161.45 12.17,150.52 -104.21,150.52l0 -150.52 -30.88 0 0 150.52 -154.39 0 24.83 -60.08c7.95,-19.99 21.01,-44.8 25.34,-63.43 -56.86,-38.07 -110.21,-80.07 -194.65,-20.96 -12.65,8.85 -11.81,13.49 -25.36,17.11 0.42,18.84 16.45,50.7 23.05,65.72 9.05,20.6 16.94,42.41 27.12,61.65l-100.35 0 0 -169.82 -54.04 0c-145.54,0 -185.75,204.57 23.17,204.57 -3.76,45.14 -32.08,52.99 -69.45,46.6 -15.94,-2.72 -19.67,-6.76 -34.76,-8 -1.16,13.94 -4.81,18.39 -7.72,30.88 8.67,0.72 142.81,49.61 142.81,-69.47 69.65,0 458.43,6.98 494.24,-7.52 16.41,-6.64 20.69,-17.96 34.54,-27.22 21.3,40.26 81.17,46.02 117.11,28.33 13.39,-6.59 17.25,-16.22 29.56,-24.47 19.9,13.33 19.96,30.88 88.78,30.88l61.76 0 0 -270.19 -30.88 0 0 235.44 0.02 -0.02z"/>
  <path class="fil1" d="M1818.48 1400.54c34.39,23.03 30.88,69.13 30.88,100.35 15.66,-11.48 20.21,-50.95 13.17,-78.78 -9.17,-36.26 -20.91,-37.15 -36.32,-60.17 28.92,6.74 49.21,32.15 57.15,58.65l7.3 27.43c0.22,0.61 0.63,1.87 1.16,2.69 11.4,-48.94 -2.79,-86.92 -44.07,-110.33l-15.2 -7.95c-0.53,-0.28 -1.72,-0.83 -2.5,-1.37 22.69,0 44.56,7.26 60,21.05 10.22,9.13 1.65,5.13 13.33,13.69 -1.11,-49.93 -49.81,-61.76 -92.64,-61.76 10.46,-14.28 36.65,-21.78 57.89,-11.58 -8.85,-33.16 -80.05,-32.66 -88.77,0 -21.83,-16 -10.59,-38.15 -27.02,-50.18 -2.09,25.13 -11.1,31.54 -15.44,50.18 -0.92,-0.61 -56.86,-59.19 -96.5,0 28.15,-6.56 51.93,-4.99 65.62,15.44 -29.68,-6.92 -43.12,-5 -65.61,7.71 -20.25,11.45 -28.76,24.54 -34.74,50.18 15.15,-10.15 25.36,-34.74 77.2,-34.74 -21.38,14.85 -35.23,12.7 -54.78,41.7 -18.21,27 -10.84,54.53 -10.84,77.94 13.37,-9.79 5.14,-8.32 10.15,-28.43 6.72,-26.96 27.43,-53.81 55.46,-60.33 -21.69,32.4 -53.9,76.13 -28.74,129.09l5.58 9.85c0,-29.84 -0.16,-40.57 7.14,-62.33 5,-14.96 16.96,-34.09 27.6,-41.87 -7.62,32.69 -22.02,75.67 10.55,120.68 8.07,11.15 1.28,6.44 12.61,10.55 -10.57,-22.02 -16.99,-98.38 19.3,-108.08 0,54.93 8.48,107.37 3.66,165.77l-7.86 77.54c-7.24,34.73 -27.84,-38.31 -171.65,-59.79 -40.69,-6.07 -121.23,11.39 -136.78,32.62 150.55,-35.08 199.95,10.76 304.91,81.05l-78.33 72.19c-9.91,8.45 -22.9,14.96 -29.73,24.3 -29.86,-20 -24.98,-13.01 -50.18,3.86 0,67.87 63.48,33.6 95.38,6.59 7.81,-6.61 12.01,-12.1 19.38,-19.21l66.66 -60.71c18.46,4.93 43.6,33.87 56.93,47.28 125.44,126.18 147.74,34.81 119.34,15.48 -15.41,-10.48 -26.98,-0.22 -37.31,6.71 -4.99,-4.34 2.2,1.2 -6.36,-5.22l-21.66 -16.94c-20.44,-18.31 -67.39,-55.41 -80.05,-74.34 18.6,-12.46 28.07,-24.24 58.07,-42.28 20.94,-12.59 40.77,-24.76 66.83,-33.52 74.06,-24.91 105.58,-21.69 176.15,-5.25 -4.5,-12.42 5.86,-2.6 -11.3,-11.86 -61.48,-33.19 -166.26,-24.73 -229.3,10.56 -19.8,11.08 -52.39,36.7 -64.32,39.89 0,-27.54 -7.73,-55.69 -7.73,-123.51 0,-21.87 0.07,-43.75 -0.01,-65.63 -0.09,-27.78 3.87,-42.5 3.87,-65.6 36.69,9.79 24.33,86.48 19.3,108.07 39.76,-26.63 31.44,-91.82 23.16,-127.37l0.02 -0z"/>
  <path class="fil0" d="M1610.07 644.04l-19.3 0c-97.19,0 -181.41,-88.74 -181.41,-185.26 0,-88.74 26.33,-150.56 100.44,-192.89 33.74,-19.27 61.81,-19.4 100.26,-19.4 59.04,0 98.56,29.93 128.42,60.7 103.76,106.98 42.09,336.85 -128.42,336.85l0.01 0zm-262.46 -196.85c0,239.17 292.56,328.29 431.41,176.66l27.26 -34.5c101.74,-155.01 20.7,-396.91 -215.51,-396.91 -136.56,0 -243.16,117.61 -243.16,254.74l0 0z"/>
  <path class="fil0" d="M1972.87 269.64c10.2,6.84 70.28,85.51 83.24,102.02 14.58,18.57 26.54,34.03 40.77,51.87 14.78,18.51 28.28,34.96 42.48,54 27.96,37.52 152.54,188.45 165.43,212.82l46.31 0 0 -490.19 -54.03 0c0,26.62 -2.57,346.88 1.46,365.21 3.31,15.05 10.08,23.34 13.98,40.06 -11.09,-7.42 -68.8,-83.85 -81.56,-99.84 -13.6,-17.05 -24.98,-32.77 -38.98,-49.8l-199.83 -255.62 -54.03 0 0 490.19 54.03 0c0,-29.78 3.62,-358.02 -3.14,-378.96 -5.32,-16.48 -11.56,-22.04 -16.15,-41.76l0.01 0.01z"/>
  <line class="fil2" x1="1972.87" y1="269.64" x2="2312.53" y2= "609.3" />
  <path class="fil0" d="M2312.53 609.3l1.15 1.15c-0.07,-0.07 -1.53,-0.77 -1.15,-1.15z"/>
  <path class="fil0" d="M4265.55 277.37l0 223.87c-49.08,0 -107.86,2.98 -145.65,-28.05 -68.03,-55.83 -57.15,-157.17 24.65,-201.01 39.39,-21.11 89.73,-17.97 148,-17.97 -15.17,13.19 -27.02,8.05 -27.02,23.16l0 0zm-247.02 104.22c0,61.25 32.88,109.12 70.15,134.41 44.21,30 92.3,39.29 165.29,39.29 1.08,-13 3.47,-17.69 11.58,-27.02 0,65.31 9.3,115.79 -92.64,115.79 -42.96,0 -57.4,-13.78 -81.06,-19.3 -5.22,10.87 -15.1,38.77 -15.44,54.04 15.81,1.31 27.49,7.84 42.37,11.67 51.28,13.2 120.8,12.14 159.32,-22.27 22.99,-20.53 41.48,-48.19 41.48,-89.76l0 -378.25c-104.32,0 -219.14,-5.98 -280.21,101.9 -9.45,16.69 -20.84,55.46 -20.84,79.51l0 -0.01z"/>
  <path class="fil0" d="M760.93 323.68c0,42.61 11.17,75.82 40.63,98.31 27.25,20.79 51.17,28.49 88.36,39.01 97.87,27.69 160.48,23.2 160.48,113.56 0,36.32 -51.04,69.47 -88.77,69.47 -63.56,0 -101.74,-3.63 -153.89,-42.96 -11.31,-8.53 -20.54,-18.72 -35.24,-22.65 -9.36,13.98 -22.55,26.17 -30.88,38.59 5.1,6.97 29.31,25.44 38,31.48 28.9,20 62.26,34.35 97.31,41.63 123.92,25.78 231.37,-32.74 231.37,-115.56 0,-35.6 3.28,-50.35 -15.53,-80.97 -3.57,-5.8 -8.02,-11.5 -13.7,-17.18 -4.4,-4.37 -12.03,-10.93 -16.46,-14.41 -86.52,-67.8 -243.79,-29.8 -243.79,-142.18 0,-46.68 51.09,-73.33 84.91,-73.33 128.24,0 116.78,38.07 162.11,50.17 3.35,-12.52 19.41,-28.07 27.02,-42.47 -26.37,-35.98 -115.67,-61.75 -169.83,-61.75 -82.23,0 -162.11,50.44 -162.11,131.23l0.02 0.02z"/>
  <path class="fil0" d="M266.88 694.21l50.18 0 52.72 -120.97c18.98,-42.68 33.81,-82.02 52.81,-124.73l106.75 -248.35 -61.75 0c-7.19,14.98 -13.76,32.29 -20.39,49.07 -20.72,52.41 -145.58,337.66 -145.58,360.05 0,19.4 3.47,17.28 3.87,34.74l-185.26 -443.87 -61.76 0 182.73 430.96c7.89,17.74 21.66,45.74 25.7,63.07l-0.01 0.01z"/>
  <path class="fil0" d="M2671.49 2693.55l-54.04 0c-7.7,-33 -41.88,-89.73 -42.46,-115.79 25.75,-6.88 61.57,-50.54 142.81,3.86 -14.44,27.31 -33.45,85.14 -46.31,111.93zm158.24 0l-123.51 0 36.97 -90.4c5.11,-12.16 8.29,-22.86 13.2,-33.1 -102.2,-68.44 -121.66,-68.44 -223.87,0l50.17 123.52 -104.21 0 0 -169.82 -34.73 0 0 227.72c0,13.26 -2.79,17.45 -12.85,22.14 -12.94,6.04 -13.51,1.37 -29.6,1.01 -2.48,10.61 -5.25,20.27 -7.72,30.88 9.42,0.79 49.63,13.82 71.36,-17.41 8.23,-11.82 13.15,-42.02 13.56,-59.78l382.11 0 0 -270.19 -30.88 0 0 235.44 0 -0.02z"/>
  <path class="fil0" d="M2011.47 2554.6l23.15 0 0 138.95c-33.82,0 -65.22,4.28 -89.46,-22.47 -32.53,-35.89 -19.29,-116.48 66.3,-116.48zm-115.79 73.33c0,70.85 67.04,100.36 135.09,100.36l328.08 0 0 -204.57 -30.88 0 0 169.82 -111.94 0 0 -169.82 -30.88 0 0 169.82 -115.79 0 0 -169.82 -54.04 0c-65.62,0 -119.65,39.5 -119.65,104.2l0.01 0z"/>
  <path class="fil0" d="M4497.14 586.13c0,58.45 -31.79,63.72 -73.33,54.04 -4.22,8.81 -14.46,42.37 -15.44,54.04 25.59,0 142.81,31.69 142.81,-108.08l0 -385.97 -54.04 0 0 385.97z"/>
  <polygon class="fil0" points="1197.07,690.35 1254.97,690.35 1254.97,200.17 1197.07,200.17 "/>
  <path class="fil0" d="M602.67 690.35c39.88,0 57.89,5.57 57.89,-11.58l0 -467.02c0,-17.15 -18.02,-11.57 -57.89,-11.57l0 490.19 0 -0.01z"/>
  <path class="fil0" d="M89.33 2624.07c0,-35.66 33.33,-69.47 81.06,-69.47l27.02 0 0 138.95c-39.63,0 -108.07,4.37 -108.07,-69.48zm-30.88 -7.72c0,39 5.88,68.48 43.94,91.15 52.34,31.19 190.85,20.78 264.84,20.78 8.89,0 11.57,-2.69 11.57,-11.59l0 -192.97 -34.74 0 0 169.82 -115.79 0 0 -169.82 -57.89 0c-54.08,0 -111.93,39.5 -111.93,92.63l-0 0z"/>
  <path class="fil0" d="M1382.33 3133.56l38.59 0 0 -146.67 33.19 47.86c9.64,14.46 24.39,40.66 36.28,48.63 3.03,-11.36 54.47,-89.04 65.62,-96.49l0 146.67 38.59 0 0 -212.29c-45.9,0 -40.43,-7.23 -71.7,44.08 -11.65,19.12 -22.83,34.12 -32.51,52.41 -24.81,-18.19 -54.09,-96.5 -73.33,-96.5l-34.73 0 0 212.29 -0 0.01z"/>
  <path class="fil0" d="M4176.78 3098.83l-69.47 0 0 -54.04c35.2,0 71.22,-4.41 96.49,7.72 4.95,21.2 7.58,46.31 -27.02,46.31l0 0.01zm-19.3 -88.78l-50.17 0 0 -54.04c32.97,0 60.62,-3.94 84.91,7.72 3.74,16.06 14.5,46.31 -34.74,46.31l0 0.01zm-88.77 123.52c60.07,0 177.55,15.18 177.55,-50.18 0,-21.51 -0.27,-54.71 -38.59,-57.89 16.22,-22.13 27.02,-7.61 27.02,-57.89 0,-61.07 -112.02,-46.31 -165.97,-46.31l0 212.29 0 -0.01z"/>
  <path class="fil0" d="M401.97 3121.98c0,15.76 12.11,11.58 42.47,11.58l0 -142.82 100.77 126.96c13.49,18.81 6.9,15.86 45.9,15.86l0 -212.29 -38.59 0 0 138.95c-10.75,-7.2 -105.17,-128.09 -108.07,-138.95l-42.46 0 0 200.7 -0.01 0.01z"/>
  <path class="fil0" d="M3015 3098.83l-34.73 0 0 -142.81c52.46,0 111.93,-4.97 111.93,81.06 0,31.84 -32.22,61.75 -77.2,61.75l0 0.01zm-77.2 34.74c75.74,0 121.78,11.53 165.08,-31.76 68.51,-68.51 18.06,-180.52 -72.44,-180.52l-92.64 0 0 212.29z"/>
  <path class="fil0" d="M961.63 3098.83l-34.74 0 0 -142.81c34.11,0 65.09,-4.45 89.93,18.15 39.94,36.34 29.83,124.66 -55.19,124.66l0.01 0.01zm-77.2 34.74c75.74,0 121.78,11.53 165.08,-31.76 67.97,-67.97 19.35,-180.52 -72.44,-180.52l-92.64 0 0 212.29z"/>
  <path class="fil0" d="M3694.31 3025.49l-50.17 0 0 -69.48c35.19,0 96.49,-9.1 96.49,34.74 0,8.26 -7.26,20.86 -13.11,25.5 -6.92,5.5 -21.65,9.25 -33.21,9.25l0 0zm-92.64 108.07l42.46 0 0 -73.33 46.31 0c5.51,20.65 39.8,48.91 46.32,73.33l46.31 0c-3.97,-14.87 -43.09,-64.71 -54.04,-81.05 71.17,-16.58 70.91,-131.24 -23.15,-131.24l-104.21 0 0 212.29 -0 -0z"/>
  <path class="fil0" d="M1154.62 3025.49c0,-96.84 142.81,-94.53 142.81,0 0,22.15 -8.74,41.27 -20.05,53.28 -6.33,6.73 -10.6,10.72 -19.62,15.11 -56.52,27.45 -103.13,-19.05 -103.13,-68.39l-0.01 0zm65.62 111.93c157.35,0 158.96,-220 0,-220 -140.62,0 -141.64,220 0,220z"/>
  <path class="fil0" d="M1837.78 2952.15c69.92,0 92.76,81.35 56.48,125.96 -34.58,42.5 -117.89,29.08 -125.13,-45.82 -3.96,-40.93 31.04,-80.14 68.65,-80.14l0 0.01zm-108.07 61.76c0,31.5 -2.56,38.78 11.41,65.79 51.35,99.31 212.45,63.69 212.45,-50.35 0,-30.67 -13.44,-58.72 -28.06,-76.15 -60.18,-71.74 -195.81,-28.62 -195.81,60.71z"/>
  <path class="fil0" d="M637.41 3013.91c0,37.53 -1.68,64.28 31.65,95.72 37.14,35.04 105.3,36.25 149.55,8.28 11.28,-7.13 5.63,-7.67 19.51,-11.37l0 -92.64 -92.64 0 0 34.73 54.04 0c0,24.49 9.94,54.04 -54.04,54.04 -104.38,0 -84.15,-191.13 34.36,-142.43 15.63,6.41 13.41,11.33 27.4,15.05 19.11,-28.55 17.76,-16.26 19.3,-34.73 -33.85,-9.04 -12.62,-23.16 -92.64,-23.16 -46.13,0 -96.49,50.37 -96.49,96.49l0 0.02z"/>
  <path class="fil0" d="M85.46 3133.56l42.46 0c0,-56.64 -8.63,-66.17 30.88,-92.63 5.65,8.43 9.86,11.83 17.13,21.47l52.35 71.17 46.31 0c-2.87,-10.74 -33,-46.58 -43.56,-60.65l-45.21 -59 62.67 -68.56c8.87,-9.53 15.17,-13.51 22.24,-24.08 -56.44,0 -39.1,-5.27 -82.02,37.64 -20.74,20.72 -45.39,52.41 -60.79,62.72l0 -100.35 -42.46 0 0 212.29 0 -0.02z"/>
  <path class="fil0" d="M2567.28 2971.44l7.72 0c1.05,12.64 24.79,65.69 30.88,77.2l-69.47 0c4.46,-19.13 25.9,-55.86 30.88,-77.2l-0 0zm-108.07 162.11l42.46 0c3.53,-15.14 12.92,-36.9 19.3,-50.18l100.35 0c4.28,18.37 15.35,33.25 19.3,50.18l42.46 0 -92.63 -216.14 -38.59 0 -92.64 216.14 -0 0z"/>
  <path class="fil0" d="M4477.83 2967.59c2.59,11.08 11.42,29.12 16.76,41.14 6.58,14.79 11.15,27 17.98,39.91l-69.47 0 34.73 -81.05 -0 -0zm-111.93 165.97l42.46 0c0.98,-11.65 14.38,-40.89 19.3,-50.18l100.35 0c3.52,15.14 12.92,36.9 19.3,50.18l42.46 0 -47.39 -107c-15.8,-36.97 -31.33,-75.54 -49.11,-109.14l-34.73 0c-4.89,21.03 -88.65,199.02 -92.63,216.14l-0 0z"/>
  <path class="fil0" d="M3458.87 2967.59c2.36,10.15 11.61,30.22 16.74,41.16 6.45,13.79 11.63,27.85 18,39.89l-69.47 0c3.23,-13.85 10.79,-28.04 16.51,-41.38l18.23 -39.67 -0.01 -0zm-111.94 165.97l42.46 0c0.98,-11.65 14.4,-40.89 19.3,-50.18l100.35 0c2.61,11.22 14.32,39.8 19.3,50.18l42.46 0c-4.91,-9.28 -7.3,-17.3 -11.65,-26.96l-84.85 -189.19 -34.73 0 -46.26 108.13c-8.18,18.22 -15.3,35.51 -23.33,53.86 -5.85,13.37 -20.01,41.07 -23.06,54.15l0.01 0.01z"/>
  <path class="fil0" d="M3922.04 2967.59c0.55,0.77 1.2,1.14 1.41,2.46 0.27,1.8 2.28,4.08 2.74,4.97l30.6 73.62 -69.47 0 34.73 -81.05 -0 0zm-108.07 165.97l38.59 0c6.38,-13.28 15.77,-35.04 19.3,-50.18l100.35 0c4.91,9.28 18.33,38.54 19.3,50.18l42.46 0 -82.28 -191.76c-11.74,-25.73 -1.85,-24.39 -37.37,-24.39 -11.42,0 -13.73,10.43 -17.8,20.81l-59.5 137.33c-5.53,12.63 -21.94,44.7 -23.06,58l0 0z"/>
  <path class="fil0" d="M2702.36 3044.78c0,60.87 35.51,92.64 96.5,92.64 108.77,0 88.78,-120.2 88.78,-216.14l-38.59 0c0,84.99 15.84,175.98 -50.91,180.47 -74.87,5.04 -57.17,-104.89 -57.17,-180.47l-38.59 0 0 123.5 -0.01 0z"/>
  <path class="fil0" d="M2281.65 2975.31c0,89.98 119.65,54.06 119.65,100.37 0,17.3 -16.93,27.02 -34.74,27.02 -33.35,0 -49.73,-13.8 -69.47,-27.02 -9,6.59 -20.3,20.16 -23.16,30.87 8.89,2.38 82.44,59.55 145.19,13.96 20.78,-15.1 45.03,-78.5 -27.06,-105.07 -18.8,-6.93 -68.74,-12.59 -71.81,-36.26 -0.79,-6.11 5.53,-27.02 34.74,-27.02 27.56,0 40.04,14.54 57.89,19.3 8.94,-6.56 16.33,-18.1 19.3,-30.87 -12.41,-3.32 -74.25,-46.06 -127.66,-8.02 -9.66,6.88 -22.86,27.04 -22.86,42.75l-0.02 -0z"/>
  <polygon class="fil0" points="1996.04,3133.56 2038.5,3133.56 2038.5,3048.64 2142.71,3048.64 2142.71,3010.05 2038.5,3010.05 2038.5,2956.01 2158.15,2956.01 2158.15,2921.28 1996.04,2921.28 "/>
  <path class="fil0" d="M483.02 2554.6c86.44,0 73.33,28.34 73.33,138.95l-138.94 0 0 34.74 169.83 0 0 -131.23c0,-39.45 -33.88,-73.33 -73.33,-73.33l-30.88 0 0 30.87 -0.01 0z"/>
  <path class="fil3" d="M1297.43 2226.53c24.69,0 80.41,-13.76 104.21,-19.3 0,-17.62 -14.35,-93.9 -19.3,-104.21 -13.93,3.25 -95.9,17.57 -100.17,22.39 -6.28,7.12 -2.49,-0.43 -1.63,9.24 1.35,15.2 16.89,65.06 16.89,91.88l0 0z"/>
  <path class="fil4" d="M2243.06 2207.23c2.78,-11.92 14.83,-99.3 12.6,-103.44 -3.7,-6.89 -26.31,-6.14 -47.34,-8.49 -65.54,-7.31 -55.16,-18.58 -62.46,41.75 -0.85,7.01 -7.75,48.62 -5.2,52.89 5.27,8.87 22.34,6.99 48.04,9.9 16.21,1.83 38.56,6.09 54.37,7.4l-0.01 -0.01z"/>
  <path class="fil5" d="M1000.22 1836.7l92.64 42.46c8.06,-15.22 16.25,-31.14 22.61,-46.85 7.17,-17.7 19.38,-32.93 19.84,-53.5 -29.4,-6.85 -72.86,-36.63 -96.5,-38.59 -6.38,27.4 -36.7,73.65 -38.59,96.5l0 -0.02z"/>
  <path class="fil6" d="M984.78 1338.78c3.13,13.46 15.37,32.26 23.36,46.11 8.54,14.83 18.67,31.11 26.82,46.51l92.63 -50.17c-8.16,-15.44 -15.3,-28.63 -24.8,-44.67 -7.37,-12.46 -22.43,-35.33 -25.38,-47.96 -11.6,2.7 -14.57,5 -23.95,10.79l-68.69 39.39 0 -0.01z"/>
  <path class="fil7" d="M1355.32 1045.45c0,-28.61 9.06,-73.97 11.57,-104.22 -21.25,-0.48 -52.3,-5.69 -76.99,-8.19 -17.71,-1.8 -24.67,-10.04 -30.18,4.96l-9.14 80.88c-0.22,20.67 4.39,18.44 23.35,19.15 28.11,1.05 52.23,7.41 81.37,7.41l0.01 0.01z"/>
  <path class="fil3" d="M2123.41 925.8c0,34.69 15.44,67.17 15.44,104.2 37.91,0 69.62,-14.67 104.21,-15.43 0,-23.98 -3.61,-33.58 -6.66,-51.24 -3.09,-17.87 -8.42,-36.89 -8.78,-52.97 -35.5,0 -68.71,15.44 -104.21,15.44z"/>
  <path class="fil8" d="M2382 1358.08l72.02 32.2c10.82,5.1 12.52,7.48 24.47,10.27 6.97,-29.94 34.39,-61.86 42.46,-96.48 -27.54,-6.42 -68.15,-35.85 -96.49,-42.47 -6.6,28.35 -36.04,68.94 -42.46,96.49l0 -0z"/>
  <path class="fil7" d="M1683.4 848.6l39.62 33.72c13.11,13.18 24.24,24.17 37.58,35.76 3.52,-2.35 66.04,-64.33 69.47,-77.2 -8.4,-12.54 -21.94,-25.57 -34.17,-35.31 -14.21,-11.33 -26.61,-25.76 -39.17,-34.17l-73.33 77.19 0 0z"/>
  <path class="fil9" d="M2385.87 1759.5c16.76,31.69 33.65,61.39 50.17,92.63 31.11,-16.46 61.32,-33.61 92.63,-50.17 -16.56,-31.32 -33.72,-61.54 -50.17,-92.64l-92.64 50.17z"/>
  <path class="fil10" d="M1698.84 2299.87c10.07,6.74 63.54,54.85 73.33,69.47l73.33 -77.2c-4.43,-6.61 -65.41,-66.32 -77.2,-69.47 -8.71,5.83 -9.58,9.63 -16.61,18.13 -6.22,7.53 -12.13,12.58 -19.09,19.5 -15.96,15.89 -21.31,20.95 -33.78,39.57l0 -0.01z"/>
  <path class="fil0" d="M4203.8 119.11l0 30.88 115.79 0 0 -42.46 -69.47 0c0,-32.57 -6.07,-27.02 54.04,-27.02l0 -38.59 -43.74 0c-32.52,2.2 -56.61,15.09 -56.61,77.19l-0.01 0z"/>
  <path class="fil0" d="M1718.13 2716.7c0,16.95 34.74,16.95 34.74,0l0 -258.6 -34.74 0 0 258.6z"/>
  <polygon class="fil0" points="2945.53,2728.29 2976.41,2728.29 2976.41,2458.1 2945.53,2458.1 "/>
  <polygon class="fil0" points="4520.3,2728.29 4551.17,2728.29 4551.17,2458.1 4520.3,2458.1 "/>
  <polygon class="fil0" points="4292.57,3133.56 4331.17,3133.56 4331.17,2921.28 4292.57,2921.28 "/>
  <polygon class="fil0" points="3180.97,3133.56 3219.57,3133.56 3219.57,2921.28 3180.97,2921.28 "/>
  <polygon class="fil0" points="309.33,3133.56 347.93,3133.56 347.93,2921.28 309.33,2921.28 "/>
  <path class="fil5" d="M1501.99 979.83c-27.53,-0.61 -51.98,-7.72 -84.91,-7.72 -3.97,17.08 -6.23,42.26 -8.17,61.99 -2.38,24.37 -10.25,20.58 39.74,26.1 51.17,5.65 44.76,22.87 53.35,-80.38l-0.01 0.01z"/>
  <path class="fil3" d="M1085.13 1701.61l77.2 34.74c7.12,-13.45 33.5,-66.21 34.74,-81.05 -29.59,-6.89 -48.51,-24.2 -77.2,-30.88 -12.52,23.65 -22.22,53.55 -34.74,77.2l0 -0.01z"/>
  <path class="fil7" d="M1278.12 1983.37c0,14.43 9.66,76.04 14.7,80.85 7.5,7.14 50.04,-11.37 81.79,-11.37 0,-22.37 -10.62,-64.24 -15.44,-84.91 -19.89,0.44 -61.79,10.94 -81.06,15.44l0.01 0z"/>
  <path class="fil11" d="M2003.76 1053.17c12.46,0 76.83,-10.46 81.15,-14.99 6.81,-7.18 -9.43,-71.88 -11.67,-81.5 -12.15,0 -77,10.64 -80.8,14.66 -5.29,5.58 1.37,26.32 3.94,39.04 2.32,11.43 6.38,30.61 7.39,42.8l-0.01 -0.02z"/>
  <path class="fil12" d="M1794.46 944.23c4.58,14.79 47.43,52.45 62.62,62.63 23.88,-35.65 40.09,-40.93 54.04,-61.75 -10.54,-15.74 -45.54,-47.04 -61.76,-57.89l-54.91 57.02z"/>
  <path class="fil6" d="M2003.76 2153.19c18.06,0.4 68.2,7.69 84.91,11.57 4.81,-20.63 9.72,-62.45 11.58,-84.91 -16.71,-3.9 -66.85,-11.18 -84.91,-11.58 -0.4,18.06 -7.69,68.2 -11.57,84.91z"/>
  <path class="fil13" d="M1347.6 1099.48c-28.95,-2.4 -50.5,-7.71 -84.91,-7.71 -3.98,17.07 -6.23,42.26 -8.16,61.98 -2.69,27.52 -8.13,19.47 40.18,25.66 49.94,6.4 43.8,6.91 45.49,-13.89 1.77,-21.59 2.86,-46.51 7.4,-66.04l-0 -0z"/>
  <path class="fil6" d="M1436.38 2095.3c2.17,26.12 13.26,54.94 15.44,81.06 17.15,0 74.65,-10.52 84.91,-15.44 -4.48,-19.27 -15,-61.17 -15.44,-81.05 -22.36,0 -64.22,10.62 -84.91,15.43z"/>
  <path class="fil11" d="M2162 2037.4c28.35,0 51.13,7.72 84.91,7.72 0,-30.27 7.72,-51.89 7.72,-84.92 -33.02,0 -54.64,-7.71 -84.91,-7.71 0,33 -7.71,54.63 -7.71,84.91z"/>
  <path class="fil10" d="M1150.75 1886.87c29.59,6.9 48.52,24.2 77.2,30.88 6.06,-11.45 12.13,-22.98 17.67,-36.36 6.15,-14.91 13.98,-27.55 17.07,-40.82 -24.3,-5.66 -55.57,-30.31 -81.05,-30.88 -1.76,21.1 -25.31,53.3 -30.88,77.2l-0.01 -0.01z"/>
  <path class="fil5" d="M1810.77 2184.07c2.08,3.1 50.2,50.95 61.76,54.04 3.29,-2.4 51.17,-53.62 54.04,-57.89 -14.43,-21.54 -40,-43.33 -61.76,-57.89 -0.88,0.65 -50.81,49.65 -54.04,61.76l0 -0z"/>
  <path class="fil5" d="M2258.5 1296.33c25.93,6.04 51.26,28.7 77.2,34.74 3.31,-14.24 10.1,-24.13 16.76,-37.28 7.22,-14.32 11.2,-27.11 17.98,-39.92l-77.2 -34.73c-10.13,19.13 -29.66,55.39 -34.74,77.2l-0 -0.01z"/>
  <path class="fil6" d="M2262.35 1821.26c13.18,24.9 25.54,48.66 38.59,73.33 19.07,-1.59 25.05,-10.06 39.87,-18.04 15.34,-8.25 23.93,-11.59 37.33,-20.56 -8.77,-16.58 -35.15,-58.53 -38.59,-73.35 -19.84,4.62 -56.89,33.18 -77.2,38.6l-0 0z"/>
  <path class="fil5" d="M2320.26 1635.99c8.53,16.13 34.6,58.38 38.59,73.33 17.18,-1.43 24.4,-10.38 39.85,-18.04 15.37,-7.63 23.87,-13.43 37.33,-20.56 -13.06,-24.69 -25.42,-48.43 -38.59,-73.33 -23.9,5.57 -55.09,32.69 -77.2,38.6l0.01 0z"/>
  <path class="fil4" d="M2320.26 1481.6l77.2 34.74c3.16,-13.58 10.3,-24.06 15.98,-38.06 5.33,-13.12 12.02,-26.4 18.76,-39.14l-77.2 -34.74c-8.28,15.65 -33.28,59.66 -34.74,77.2l0.01 0z"/>
  <path class="fil5" d="M2146.56 1084.05c3.35,14.41 5.51,25.56 8.24,41.94 2.2,13.22 6.87,28.1 7.2,42.97 21.93,-5.11 62.37,-13.57 84.91,-15.44 -2.19,-26.22 -13.26,-58.69 -15.44,-84.91 -21.93,5.11 -62.37,13.56 -84.91,15.44z"/>
  <path class="fil14" d="M1135.32 1280.89c4.07,17.47 27.8,52.92 38.59,73.33 14.78,-3.44 56.92,-29.91 73.33,-38.59 -3.44,-14.77 -29.91,-56.91 -38.59,-73.33 -17.46,4.07 -52.92,27.8 -73.33,38.59z"/>
  <path class="fil7" d="M1077.42 1466.16l42.46 77.2c23.06,-15.45 50.51,-27.19 73.33,-42.46 -9.41,-17.77 -34.99,-57.83 -38.59,-73.33 -24.56,5.72 -52.63,32.88 -77.2,38.59l0 0.01z"/>
  <path class="fil8" d="M1598.49 945.09l58.77 60.89 57.96 -56.09c-4.46,-14.37 -46.17,-54.21 -58.83,-62.69 -23.52,15.75 -33.57,41.61 -57.89,57.89l-0 -0z"/>
  <path class="fil4" d="M1613.92 2187.93c19.11,12.79 40.2,39.6 61.76,54.04 22.59,-15.13 28.23,-38.02 57.89,-57.89l-61.76 -57.89c-17.43,11.67 -45.9,43.84 -57.89,61.76l0 -0z"/>
  <path class="fil13" d="M2061.65 1863.71c-6.19,6.19 -3.76,11.03 -6.68,32.06 -4.67,33.74 -16.11,33.34 48.9,38.62 13.28,1.07 13.66,9.23 18.95,-32.8 1.55,-12.32 4.98,-26.31 0.67,-30.65 -5.51,-5.55 -39.84,-7.66 -49.85,-7.94 -14.71,-0.4 -5.23,-6.06 -12,0.71l0 0z"/>
  <path class="fil4" d="M1498.13 1180.54c27.95,0 38.65,3.87 65.62,3.87 0.43,-19.13 7.3,-46.48 7.72,-65.62 -64.15,0 -73.33,-37.21 -73.33,61.76z"/>
  <path class="fil8" d="M1505.85 1956.35c0.51,22.43 9.78,43.86 11.58,65.61 22.43,-0.5 43.86,-9.76 65.62,-11.58 -0.5,-22.44 -9.77,-43.87 -11.57,-65.62 -22.43,0.51 -43.86,9.77 -65.62,11.58l0 0.01z"/>
  <path class="fil13" d="M1961.3 2114.59c1.73,-20.79 7.71,-42.25 7.71,-65.61 -19.98,0 -46.75,-6.15 -65.62,-7.71 -5.48,65.91 -31.29,73.33 57.89,73.33l0.01 -0.01z"/>
  <path class="fil5" d="M1938.14 1122.65c3.88,16.64 11.17,47.12 11.58,65.61 20.52,-1.7 44.05,-9.78 65.62,-11.58 0,-15.19 -6.89,-55.86 -11.57,-65.62 -15.46,0.34 -50.74,8.11 -65.62,11.57l0 0.01z"/>
  <path class="fil3" d="M2134.98 1373.52l61.75 27.02c5.49,-23.59 21.52,-38.18 27.02,-61.76 -23.58,-5.49 -38.18,-21.52 -61.76,-27.02 -2.9,12.44 -7.13,18.31 -12.88,29.57 -6.2,12.11 -8.89,21.26 -14.13,32.19l0 0z"/>
  <path class="fil9" d="M1606.2 1087.91c0,-27.96 3.86,-38.67 3.86,-65.62 -14.87,0 -52.72,-4.71 -65.62,-7.71 0,65.6 -36.42,73.33 61.76,73.33z"/>
  <path class="fil15" d="M2227.62 1408.27l61.76 27.02c5.49,-23.59 21.53,-38.17 27.02,-61.76 -23.59,-5.49 -38.18,-21.53 -61.76,-27.02 -2.98,12.81 -7.17,17.77 -12.91,29.55 -5.88,12.08 -8.4,21.4 -14.11,32.2l-0 0z"/>
  <path class="fil5" d="M1247.25 1481.6c10.53,19.89 20.36,38 30.88,57.89 12.68,-3.38 44.09,-23.57 57.89,-30.87 -3.33,-14.25 -23.03,-46.17 -30.88,-57.91 -15,3.5 -43.29,23.15 -57.89,30.88z"/>
  <path class="fil15" d="M1409.35 1983.37c4.08,17.54 11.57,45.64 11.57,65.61 18.49,-0.42 48.97,-7.7 65.61,-11.57 0,-16.61 -6.67,-55.38 -11.58,-65.61 -21.76,1.81 -43.18,11.08 -65.62,11.58l0.01 0z"/>
  <path class="fil15" d="M1459.53 1107.2c-19.98,0 -46.74,-6.16 -65.62,-7.73 -1.67,75.04 -26.64,65.33 22.39,70.3 30.07,3.05 43.22,23.39 43.22,-62.58l0.01 0z"/>
  <path class="fil4" d="M1938.14 2014.24c21.26,0 48.23,3.67 65.62,7.71 0.5,-22.34 7.71,-44.66 7.71,-69.47 -15.19,0 -56.4,-3.3 -65.62,-7.73 -1.9,22.9 -7.72,42.95 -7.72,69.47l0 0.01z"/>
  <path class="fil10" d="M2134.98 1763.35c2.64,11.33 24.3,48.07 30.88,57.91 19.82,-4.61 34.26,-21.52 57.89,-27.02 -4.41,-18.93 -21.82,-44.62 -30.88,-61.75 -19.89,10.53 -38,20.35 -57.89,30.87l0 -0.01z"/>
  <path class="fil8" d="M1170.06 1593.53c10.2,5.41 18.08,7.46 29.6,12.86 12.46,5.81 18.66,11.02 32.15,14.16 3.54,-15.22 19.85,-48.22 27.02,-61.76l-61.75 -27.02 -27.02 61.75 0 0.01z"/>
  <path class="fil10" d="M1247.25 1663.01c15.21,3.54 48.21,19.85 61.75,27.02 9.57,-19.96 17.44,-41.79 27.02,-61.76 -10.2,-5.39 -18.08,-7.46 -29.6,-12.84 -12.46,-5.82 -18.66,-11.04 -32.15,-14.17l-27.02 61.76z"/>
  <path class="fil12" d="M1281.98 1910.02c13.54,7.17 46.54,23.48 61.76,27.02 4.61,-19.79 21.5,-41.8 23.15,-61.75 -10.23,-4.92 -18.13,-6.94 -29.58,-12.88 -12,-6.22 -15.47,-9.92 -32.18,-10.28 -5.04,21.62 -18.7,38.78 -23.15,57.89l0 -0.01z"/>
  <path class="fil3" d="M1390.06 1875.29c0,19.97 7.49,48.06 11.57,65.61 21.75,-1.81 43.18,-11.08 65.62,-11.58 -4.08,-17.56 -11.57,-45.63 -11.57,-65.61 -19.98,0 -48.06,7.49 -65.62,11.58z"/>
  <path class="fil7" d="M2046.21 2025.82c22.9,1.91 42.95,7.72 69.47,7.72 0,-21.26 3.67,-48.23 7.72,-65.61 -20.85,-0.47 -47.75,-7.72 -69.47,-7.72 0,17.46 -2.54,54.84 -7.71,65.62l0 0z"/>
  <path class="fil10" d="M2034.63 1095.63c1.8,21.57 9.87,45.1 11.58,65.62 18.49,-0.41 48.97,-7.7 65.62,-11.57 -1.79,-21.57 -9.87,-45.1 -11.57,-65.61 -21.75,1.81 -43.18,11.08 -65.62,11.58l0 -0.01z"/>
  <path class="fil12" d="M2181.3 1508.62c23.58,5.49 38.17,21.52 61.76,27.02 4.36,-18.71 18.58,-45.81 27.02,-61.75l-61.76 -27.02c-5.4,10.2 -7.46,18.08 -12.85,29.6 -5.82,12.46 -11.02,18.66 -14.16,32.15z"/>
  <path class="fil5" d="M1386.2 1265.45c19.15,0.43 46.48,7.3 65.62,7.72l4.57 -53.61c0.04,-1.3 0.11,-4.8 0.08,-5.82 -0.2,-6.71 1.68,-0.94 -0.79,-6.18 -9.22,-4.42 -50.41,-7.72 -65.62,-7.72 0,25.23 -3.87,37.46 -3.87,65.61l0 -0.01z"/>
  <path class="fil16" d="M1297.43 1798.09c23.21,5.4 35,20.94 61.76,23.16 5.04,-21.62 18.71,-38.77 23.15,-57.91 -17.99,-9.52 -40.17,-21.98 -61.76,-27.02 -4.61,19.79 -21.5,41.79 -23.15,61.75l0 0.01z"/>
  <path class="fil4" d="M1266.54 1246.16c4.94,18.48 22.56,34.91 27.02,54.04 14.09,-1.17 47.31,-23.23 61.76,-30.88 -7.73,-14.6 -27.39,-42.9 -30.88,-57.89 -12.97,3.02 -51.28,25.72 -57.89,34.73z"/>
  <path class="fil3" d="M1721.99 2110.74c17.63,11.81 34.56,24.89 46.32,42.46 11.49,-7.7 42.86,-37.26 46.31,-50.17 -2.73,-3.74 -41.65,-39.33 -46.31,-42.46 -13.1,8.77 -37.93,37.65 -46.32,50.17l0 -0.01z"/>
  <path class="fil6" d="M1200.93 1763.35l61.76 27.02 27.02 -61.76 -61.76 -27.02c-3.54,15.21 -19.85,48.21 -27.02,61.75z"/>
  <path class="fil13" d="M2158.15 1219.14c3.97,17.02 10.06,43.43 11.57,61.75 26.55,0 41.02,-7.71 65.62,-7.71 0,-11.05 -8.09,-63.3 -12.98,-66.23 -4.39,-2.63 -55.57,8.04 -64.21,12.2l0 -0z"/>
  <path class="fil4" d="M2065.51 1269.31c26.54,0 41.02,-7.72 65.62,-7.72 0,-20.93 -7.36,-51.37 -11.57,-69.47 -38.63,18.54 -66.65,-3.14 -62.84,27.15 0.83,6.55 2.28,12.07 3.25,16.86 2.75,13.39 5.27,20.09 5.56,33.18l-0.01 0.01z"/>
  <path class="fil11" d="M2177.44 1628.26c10.53,19.91 20.53,38.34 30.88,57.89 13.93,-3.72 44.07,-23.56 57.89,-30.87 -3.03,-11.37 -24.16,-47.87 -30.88,-57.9 -9.48,5.02 -17.65,8.66 -28.36,14.09 -12.62,6.41 -18.18,10.78 -29.53,16.78l0 0.01z"/>
  <path class="fil9" d="M1193.21 1396.69c1.37,16.46 21.64,47.97 30.88,61.76 14.6,-7.73 42.9,-27.38 57.89,-30.89 -10.52,-19.88 -20.35,-38.01 -30.88,-57.89 -23.63,5.51 -38.08,22.4 -57.89,27.02l0 0.01z"/>
  <path class="fil10" d="M1289.71 1342.65c1.81,21.72 21.63,37.72 27.02,57.9 16.45,-1.37 47.97,-21.64 61.76,-30.88 -10.93,-16.31 -21.43,-36.18 -30.88,-54.04 -12.51,1.04 -45.08,20.24 -57.89,27.02z"/>
  <path class="fil17" d="M2258.5 1578.09l61.76 27.02c5.4,-23.21 20.93,-35.02 23.15,-61.75l-57.89 -27.02c-5.49,23.59 -21.53,38.18 -27.02,61.75z"/>
  <path class="fil18" d="M2158.15 1863.71c1.04,12.52 20.24,45.08 27.02,57.89 25.74,-2.13 40.02,-21.96 61.76,-27.02 -10.52,-19.89 -20.35,-38.02 -30.88,-57.91 -21.85,5.09 -40.19,22.28 -57.89,27.02l0 0.01z"/>
  <path class="fil12" d="M1640.94 2029.68c6.88,10.26 14.97,16.78 24.11,26.06 10.44,10.62 13.39,18.87 29.93,20.26 5.48,-20.53 27.68,-30.02 38.59,-46.32 -8.77,-13.09 -37.66,-37.93 -50.18,-46.31 -11.81,17.63 -24.88,34.55 -42.46,46.31l0 -0z"/>
  <path class="fil8" d="M2231.48 1709.32c10.54,19.9 20.53,38.34 30.88,57.89 23.63,-5.51 38.07,-22.4 57.89,-27.02 -1.03,-12.31 -23.42,-50.62 -30.88,-61.75 -10.04,6.71 -46.53,27.85 -57.89,30.88z"/>
  <path class="fil15" d="M1551.31 2082.87c10.64,15.46 33.56,35.33 47.18,47.16l46.32 -50.17c-15.67,-10.5 -33.8,-31.48 -50.18,-42.46l-43.31 45.48z"/>
  <path class="fil17" d="M1782.83 2028.76c9.46,13.68 13.69,13.28 25.02,23.16 8.95,7.78 16.02,14.83 22.22,24.09 10.17,-6.81 17.18,-14.23 25.4,-24.78 8.49,-10.91 17.3,-15.69 20.92,-29.26 -20.53,-5.47 -30.02,-27.68 -46.31,-38.59l-47.24 45.39 0.01 0z"/>
  <path class="fil7" d="M1879.31 1048.38c3.44,4.69 46.28,44.02 51.1,47.23 22.07,-32.96 30.9,-32.91 42.46,-50.17l-45.47 -43.31 -48.08 46.25 -0 0z"/>
  <path class="fil15" d="M1709.57 1021.45l44.17 46.31c9.41,-6.02 15.91,-14.12 25.21,-23.26 10.62,-10.44 18.87,-13.39 20.25,-29.93 -20.53,-5.48 -30.02,-27.69 -46.31,-38.59l-43.31 45.47 0.01 0.01z"/>
  <path class="fil10" d="M1633.22 1095.63l46.31 42.46 45.48 -43.31c-5.64,-8.82 -12.59,-14.48 -21.34,-23.27 -9.3,-9.34 -14.27,-18.53 -27.99,-22.19l-42.46 46.31 -0 0z"/>
  <path class="fil5" d="M1791.46 1099.48l43.31 45.48 46.39 -44.56 -46.32 -48.17c-7.11,5.06 -38.83,40.46 -43.38,47.23l0 0.01z"/>
  <path class="fil0" d="M3864.15 752.11c0,55.57 -9.71,46.31 54.04,46.31l0 -57.89c-37.68,0 -54.04,-5.22 -54.04,11.58z"/>
  <path class="fil0" d="M3759.93 752.11c0,55.57 -9.72,46.31 54.04,46.31l0 -57.89c-37.68,0 -54.04,-5.22 -54.04,11.58z"/>
  <polygon class="fil0" points="2887.63,150 2941.66,150 2941.66,95.96 2887.63,95.96 "/>
  <polygon class="fil0" points="2783.42,150 2837.45,150 2837.45,95.96 2783.42,95.96 "/>
  <path class="fil12" d="M1594.63 1203.7c49.56,0 47.59,18.35 51.41,-26.66 1.39,-16.35 10.97,-18.24 -24.39,-20.29 -17.06,-0.98 -25.7,-12.67 -27.02,46.95l0 -0z"/>
  <path class="fil13" d="M1864.8 1937.05c0,19.4 -3.47,17.28 -3.86,34.74 51.89,0 48.53,23.67 54.04,-42.47 -23.7,-1.97 -11.2,-3.86 -50.18,-3.86l0 11.58 0 0.01z"/>
  <path class="fil5" d="M2134.98 1574.22c11.63,6.16 29.03,16.17 42.46,19.3 7.17,-13.56 11.94,-28.56 19.29,-42.46 -11.63,-6.15 -29.03,-16.17 -42.46,-19.3 -6.15,11.63 -16.17,29.03 -19.3,42.46l0.01 0z"/>
  <path class="fil11" d="M1336.03 1709.32c11.86,6.27 32.11,15.98 46.31,19.3 4.42,-18.97 11.72,-26.51 15.44,-42.46 -11.63,-6.15 -29.03,-16.16 -42.46,-19.3 -7.01,14.6 -11.69,28.08 -19.3,42.46l0 0z"/>
  <path class="fil7" d="M2119.55 1450.72c18.76,4.38 22.43,13.78 42.46,15.44 6.15,-11.63 16.17,-29.03 19.3,-42.46 -20.72,-4.83 -21.96,-14.9 -46.32,-15.44 -3.72,15.94 -11.02,23.48 -15.44,42.46l-0 0z"/>
  <path class="fil7" d="M1390.06 1323.35c7.91,14.95 15.24,27.49 23.15,42.46 14.26,-7.55 27.57,-15.28 42.46,-23.16 -6.22,-9.29 -20.17,-31.27 -23.15,-42.46 -14.26,7.55 -27.57,15.28 -42.46,23.17z"/>
  <path class="fil4" d="M1320.58 1585.81c14.6,7 28.08,11.69 42.46,19.3 8.59,-36.87 32.84,-38.22 -0.74,-53.3 -10.39,-4.66 -13.3,-7.38 -26.28,-8.45 -4.37,18.76 -13.77,22.43 -15.44,42.46l0 -0z"/>
  <path class="fil5" d="M2057.79 1790.38c4.06,15.24 14.85,23.37 19.3,42.46 19.4,-4.52 21.07,-14.31 42.46,-19.3 -1.38,-16.49 -8.42,-21.91 -19.3,-42.46 -13.43,3.13 -30.83,13.15 -42.46,19.3z"/>
  <path class="fil18" d="M1853.22 1184.4c14.24,3.8 23.64,16.2 30.88,27.02l31.78 -29.96c-4.95,-16.07 -20.16,-27.86 -31.78,-35.65 -12.18,8.15 -29.33,19.99 -30.88,38.59z"/>
  <path class="fil12" d="M1405.5 1790.38c0.39,17.63 6.35,29.84 7.72,46.31 16.47,-1.37 28.68,-7.33 46.31,-7.72 -0.39,-17.62 -6.35,-29.84 -7.71,-46.31 -17.5,0 -31.94,4.38 -46.32,7.72l0 -0z"/>
  <path class="fil13" d="M1332.17 1435.28c2.98,11.18 16.93,33.16 23.15,42.46 12.81,-8.59 25.78,-14.58 38.59,-23.15 -4.52,-19.4 -14.32,-21.07 -19.3,-42.46 -14.88,7.88 -28.2,15.62 -42.46,23.16l0.01 0z"/>
  <path class="fil4" d="M1494.28 1879.15c0,20.62 3.89,33.76 7.71,50.17 13.24,-6.35 33.09,-5.22 46.32,-11.57 -15.67,-67.23 2.31,-38.59 -54.04,-38.59l0 0z"/>
  <path class="fil13" d="M2119.55 1678.45c3.13,13.42 13.15,30.82 19.3,42.46 19.07,-4.45 27.21,-15.22 42.46,-19.3 -4.98,-21.39 -14.78,-23.07 -19.3,-42.46 -19.09,4.44 -27.21,15.22 -42.46,19.3z"/>
  <path class="fil13" d="M1976.74 1917.75l46.23 4.6c0.46,-17.57 3.95,-24.91 3.95,-47.06 -24.93,-5.81 -16.43,-3.87 -46.31,-3.87 0,19.35 -3.87,23.77 -3.87,46.32l-0 0z"/>
  <path class="fil12" d="M1972.87 1215.28c2.89,12.41 7.41,28.04 7.73,42.46 22.56,0 26.96,-3.86 46.31,-3.86 0,-11.49 -1.84,-43.76 -8.67,-47.39 -4.08,-2.17 -38.51,5.5 -45.37,8.8z"/>
  <path class="fil19" d="M1728.81 1974.74c8.7,12.53 20.48,27.72 35.65,31.78 9.18,-6.14 24.56,-25.3 30.88,-34.73 -11.23,-7.52 -22.72,-18.98 -34.73,-27.02l-31.78 29.97 -0.01 -0.01z"/>
  <path class="fil11" d="M1482.69 1257.73c21.08,1.76 10.54,3.86 46.32,3.86 0.34,-15.21 3.85,-16.98 3.85,-46.31l-46.23 -4.61c-0.46,17.57 -3.95,24.91 -3.95,47.07l0.02 -0.01z"/>
  <path class="fil16" d="M2061.65 1304.06l4.6 46.22c17.42,0.09 37.62,-1.96 49.43,-7.64 -15.66,-67.22 2.31,-38.59 -54.04,-38.59l0.01 0.01z"/>
  <path class="fil12" d="M1606.2 1960.2c20.59,5.5 14.13,17.66 34.73,23.16 4.82,-3.54 23.3,-25.33 27.02,-30.88l-29.97 -31.79c-13.09,9.06 -30.23,20.91 -31.78,39.5l0.01 0z"/>
  <polygon class="fil7" points="1728.81,1152.61 1759.68,1185.31 1792.38,1154.43 1761.5,1121.74 "/>
  <path class="fil0" d="M2216.04 2782.33c0,8.89 2.69,11.57 11.57,11.57l23.15 0 0 -34.73 -34.74 0 0 23.17 0.01 -0.01z"/>
  <path class="fil0" d="M2324.11 2770.74c0,26.42 -2.46,23.15 34.74,23.15l0 -34.73c-24.83,0 -34.74,-3.43 -34.74,11.58z"/>
  <path class="fil0" d="M297.76 2793.9c37.2,0 34.73,3.27 34.73,-23.15 0,-15.01 -9.9,-11.58 -34.73,-11.58l0 34.73z"/>
  <path class="fil0" d="M3207.99 2481.27c0,16.94 34.74,16.94 34.74,0l0 -23.16 -34.74 0 0 23.16z"/>
  <path class="fil0" d="M143.36 2481.27c0,16.94 34.73,16.94 34.73,0l0 -23.16 -34.73 0 0 23.16z"/>
  <path class="fil0" d="M2034.63 2481.27c0,16.94 34.74,16.94 34.74,0l0 -23.16 -34.74 0 0 23.16z"/>
  <polygon class="fil0" points="2165.86,2793.9 2196.74,2793.9 2196.74,2759.17 2165.86,2759.17 "/>
  <polygon class="fil0" points="351.79,2793.9 382.67,2793.9 382.67,2759.17 351.79,2759.17 "/>
  <path class="fil0" d="M1984.45 2492.85l19.3 0c8.89,0 11.57,-2.68 11.57,-11.58l0 -23.16 -30.88 0 0 34.73 0 0.01z"/>
  <path class="fil0" d="M197.41 2492.85l19.3 0c8.89,0 11.58,-2.68 11.58,-11.58l0 -23.16 -30.88 0 0 34.73 0 0.01z"/>
  <path class="fil0" d="M3262.03 2492.85l19.3 0c8.88,0 11.57,-2.68 11.57,-11.58l0 -23.16 -30.88 0 0 34.73 0 0.01z"/>
 </g>
</svg>
