<?xml version="1.0" encoding="UTF-8"?>
<!DOCTYPE svg PUBLIC "-//W3C//DTD SVG 1.1//EN" "http://www.w3.org/Graphics/SVG/1.1/DTD/svg11.dtd">
<!-- Creator: CorelDRAW 2019 (64-Bit) -->
<svg xmlns="http://www.w3.org/2000/svg" xml:space="preserve" width="4.746in" height="3.175in" version="1.1" style="shape-rendering:geometricPrecision; text-rendering:geometricPrecision; image-rendering:optimizeQuality; fill-rule:evenodd; clip-rule:evenodd"
viewBox="0 0 4746 3175"
 xmlns:xlink="http://www.w3.org/1999/xlink"
 xmlns:xodm="http://www.corel.com/coreldraw/odm/2003">
 <defs>
  <style type="text/css">
   <![CDATA[
    .fil2 {fill:none}
    .fil0 {fill:#606062}
    .fil19 {fill:#1D3871}
    .fil11 {fill:#1E3771}
    .fil14 {fill:#1E3871}
    .fil6 {fill:#27B7BD}
    .fil5 {fill:#27B8BD}
    .fil8 {fill:#29367B}
    .fil3 {fill:#2F87C8}
    .fil9 {fill:#2F88C7}
    .fil18 {fill:#57B65E}
    .fil16 {fill:#58B75D}
    .fil1 {fill:#717982}
    .fil4 {fill:#71B944}
    .fil7 {fill:#71BA44}
    .fil12 {fill:#B1ADB3}
    .fil13 {fill:#B1AEB3}
    .fil17 {fill:#CED932}
    .fil10 {fill:#CFDA33}
    .fil15 {fill:#D0DA32}
   ]]>
  </style>
 </defs>
 <g id="Layer_x0020_1">
  <metadata id="CorelCorpID_0Corel-Layer"/>
  <g id="_1842949590976">
   <path class="fil0" d="M3701.23 1578.06c0,-303.03 290.43,-443.52 512.01,-337.92 42.34,20.18 72.32,46.08 104.12,77.7 127.63,126.9 135.14,378.48 1.93,522.37 -134.56,145.35 -371.27,146.96 -516.59,0.03 -26.97,-27.28 -56.59,-74.54 -71.13,-110.68 -16.31,-40.53 -30.34,-93.68 -30.34,-151.48l0 -0.01zm-274.67 -15.46c0,110.02 16.09,197.56 57.97,282.46 39.56,80.2 69.28,117 128.68,176.94 223.78,225.82 662.54,227.37 887.86,0 60.55,-61.1 89.48,-94.67 131.25,-178.24 97.65,-195.32 73.02,-447.08 -52.93,-625.46 -23.05,-32.66 -44.28,-53.91 -72.52,-82.21 -269.78,-270.23 -813.25,-235.86 -1021,176.34 -31.34,62.18 -59.31,158.52 -59.31,250.18l0.01 -0z"/>
   <g>
    <path class="fil0" d="M3082.25 1125.44l-3.87 3.86 3.87 -3.86zm-3.87 3.86c-13.01,19.44 -349.22,356.58 -359.78,363.66 6.25,13.01 14.63,54.67 18.56,70.41 6.18,24.7 12.58,45.93 17.61,71.36 4.02,20.3 -2.09,22.72 17.61,24.95 10.32,1.16 34.84,-0.36 46.8,-0.37 33.22,-0.02 61.92,0.35 89.59,3.26 92.51,9.7 202.91,34.8 192.71,166.85 -11.05,142.91 -218.2,163.37 -356.6,70.54 -30.19,-20.24 -76.76,-57.28 -95.93,-85.9l-181.83 170.22c20.96,31.31 51.32,57.85 80.67,81.81 131.94,107.73 331.06,150.04 499.39,115.24 72.65,-15.01 126.17,-42.48 182.13,-84.8 44.72,-33.81 88.54,-98.06 109.34,-157.59 63.17,-180.72 -0.11,-372.44 -183.42,-441.63 -25.03,-9.45 -76.72,-27.57 -107.83,-27.57 6.03,-22.59 77.39,-79.04 95.78,-97.65l123.74 -119.98c95.26,-96.38 74.49,-12.28 74.49,-269.82l-804.67 0 0 228.24 387.03 0.17c55.11,0.34 107.9,-68.94 154.59,-81.4l0 -0z"/>
   </g>
   <g>
    <path class="fil0" d="M335.53 2019.09l-7.74 3.87 7.74 -3.87zm0 0c7.99,-11.93 166.08,-132.28 190.12,-150.32 78.83,-59.15 216.82,-162.97 282.9,-231.63 9.16,-9.51 10.52,-13.86 19.27,-23.28 49.11,-52.79 89.04,-127.37 99.48,-202.27 6.7,-48.14 6.86,-120.66 -2.88,-163.22 -77.21,-337.07 -537.14,-345.36 -725.27,-170.34 -9.4,8.75 -13.76,10.14 -23.28,19.28 -19.12,18.38 -93.85,99.1 -95.68,120.97 17.15,4.57 148.33,120.71 181.83,143.14 33.11,-24.26 102.56,-159.69 247.67,-158.8 137.41,0.84 183.51,124.81 137.6,234.6 -13.23,31.66 -60.66,93.5 -86.82,114.35l-53.58 47c-10.19,8.61 -16.41,14.31 -27.04,23.25l-253.87 206.49c-38.01,30.64 -73.61,59.25 -110.11,91.06 -70.18,61.15 -55.02,23.95 -55.02,150.02 0,14.63 -2.6,91.64 1.78,98.81 8.59,14.05 75.29,5.65 94.93,5.65l762.46 0.33c24.74,0.27 27.01,2.04 27.19,-23.1 0.49,-68.23 -0.45,-137.13 -0.45,-205.48l-425.57 -0.03c-44.15,-0.28 -37.98,1.58 -68.32,16.78 -25.56,12.82 -95.08,51.56 -117.35,56.74l0.02 0.01z"/>
   </g>
   <path class="fil0" d="M2888.82 270.47l0 297.89c0,31.66 5.98,45.48 11.61,69.63 -91.3,0 -151.24,6.15 -205.67,-34.2 -106.91,-79.25 -107.24,-242.82 0,-322.34 55.4,-41.08 121.39,-30.33 213.39,-30.33 -0.7,0.62 -1.96,0.4 -2.3,1.56 -0.34,1.16 -1.85,1.23 -2.32,1.56 -1.88,1.28 -5.97,3.84 -6.92,4.69 -5.87,5.24 -7.78,-0.88 -7.78,11.55l-0.01 0zm-104.45 417.82l123.79 0 0 -34.81c11.67,13.41 23.28,27.05 44.77,32.61 48.34,12.51 871.02,6.07 988.16,6.07l0 -495.18 -54.16 0 0 441.02 -700.23 0c-38.88,0.01 -65.09,-4.08 -100.56,-3.89 -61.1,0.33 -119.79,12.46 -135.44,-19.3 -14.86,-30.14 -7.72,-357.14 -7.72,-417.83 -78.66,0 -170.17,-9.16 -242.15,20.92 -52.39,21.9 -96.59,68.57 -120.26,119.61 -41.09,88.67 -27.73,201.44 38.34,272.51 35.28,37.94 94.1,78.28 165.43,78.28l0.03 -0.01z"/>
   <path class="fil0" d="M3921.74 2730.91c-107.01,0 -99.24,-154.75 -3.87,-154.75 102.34,0 102.36,154.75 3.87,154.75zm286.28 -154.75c21.02,0 44.02,11.01 55.16,22.21 41.17,41.4 27.16,132.53 -59.03,132.53 -95.11,0 -97,-154.75 3.87,-154.75l-0.01 0.01zm-1052.27 54.16c0,-44.68 35.79,-73.5 81.24,-73.5l27.08 0 0 139.27 -38.68 0c-36.93,0 -69.63,-28.44 -69.63,-65.77l-0.01 0zm197.3 -58.03c0,6.4 8.77,21.73 11.6,27.08 42.56,0 85.13,0.16 127.68,-0.02 85.41,-0.33 77.37,20.24 77.37,96.73l-274.68 0 0 -170.21 -58.03 0c-54.49,0 -112.2,39.62 -112.2,92.85 0,38.63 4.58,66.64 41.66,89.87 22.1,13.84 55.2,22.06 89.72,22.47l565.25 -0.43c51.82,0.02 15.9,31.22 108.06,31.22 37.33,0 64.35,-30.95 73.5,-30.95l116.06 0c33.15,0 14.9,30.95 100.58,30.95 40.76,0 60.43,-30.95 73.5,-30.95l147.01 0 0 -270.8 -30.95 0 0 235.98 -100.58 0c47.06,-98.08 -89.46,-209.47 -179.1,-117.2 -37.33,38.43 -31.34,77.39 -22.06,117.2l-88.98 0c16.89,-31.94 9.06,-74.58 -9.35,-102.83 -60.8,-93.24 -199.55,-40.08 -199.55,56.41 0,17.54 4.38,32.02 7.73,46.42l-88.98 0 0 -235.98 -34.81 0 0 235.98 -92.85 0c0,-43.64 8.73,-124.37 -69.52,-127.79 -45.66,-2 -96.96,0.11 -143.26,0.11 12.66,-23.92 48.55,-84.24 54.17,-108.32l-34.82 0c-6.28,26.97 -54.16,95.02 -54.16,112.19l-0.01 0.02z"/>
   <path class="fil0" d="M745.6 2556.83l27.08 0 0 139.27 -42.56 0c-90.54,0 -95.65,-139.27 15.48,-139.27l0.01 0zm243.71 139.27l-54.16 0c-9.1,-39.05 -33.61,-73.77 -42.56,-112.19 51.03,-34.17 85.06,-38.89 143.14,0l-46.43 112.19zm611.25 0c-27.51,0 -94.73,7.79 -108.39,-22.91 -7.46,-16.75 0.07,1.76 0.07,-15.77l0 -112.19 -30.95 0c0,109.81 14.46,154.74 -65.77,154.74 -17.27,0 -37.02,-15.66 -42.6,-27.03 -9.12,-18.56 -3.82,-101.24 -3.82,-127.71l-34.81 0c0,161.82 12.2,150.87 -104.46,150.87l0 -150.87 -30.95 0 0 150.87 -154.75 0 24.89 -60.22c7.97,-20.04 21.06,-44.9 25.4,-63.58 -56.99,-38.17 -110.46,-80.26 -195.09,-21.01 -12.68,8.87 -11.84,13.52 -25.42,17.15 0.42,18.89 16.49,50.81 23.1,65.88 9.07,20.65 16.98,42.51 27.19,61.79l-100.58 0 0 -170.21 -54.17 0c-145.87,0 -186.18,205.04 23.22,205.04 -3.76,45.24 -32.15,53.11 -69.61,46.71 -15.97,-2.73 -19.72,-6.77 -34.84,-8.02 -1.17,13.98 -4.82,18.43 -7.74,30.95 8.69,0.72 143.15,49.73 143.15,-69.63 69.81,0 459.49,7 495.38,-7.54 16.44,-6.66 20.73,-18 34.61,-27.28 21.35,40.35 81.35,46.13 117.38,28.4 13.42,-6.61 17.28,-16.26 29.63,-24.53 19.94,13.35 20.01,30.95 88.98,30.95l61.9 0 0 -270.81 -30.95 0 0 235.99 0.02 -0.02z"/>
   <path class="fil1" d="M1817.2 1400.11c34.47,23.08 30.95,69.29 30.95,100.58 15.7,-11.5 20.26,-51.07 13.2,-78.96 -9.19,-36.35 -20.96,-37.24 -36.41,-60.31 28.98,6.76 49.33,32.22 57.28,58.78l7.32 27.5c0.22,0.62 0.64,1.88 1.17,2.7 11.43,-49.06 -2.8,-87.12 -44.17,-110.58l-15.24 -7.97c-0.53,-0.28 -1.72,-0.83 -2.5,-1.37 22.74,0 44.66,7.28 60.14,21.09 10.24,9.15 1.65,5.14 13.36,13.72 -1.11,-50.04 -49.93,-61.9 -92.85,-61.9 10.49,-14.31 36.73,-21.83 58.03,-11.6 -8.87,-33.24 -80.24,-32.74 -88.98,0 -21.88,-16.04 -10.61,-38.23 -27.08,-50.3 -2.1,25.18 -11.13,31.61 -15.48,50.3 -0.92,-0.62 -56.99,-59.32 -96.72,0 28.21,-6.57 52.06,-5 65.77,15.48 -29.75,-6.93 -43.22,-5.02 -65.76,7.73 -20.3,11.48 -28.83,24.59 -34.82,50.29 15.18,-10.17 25.42,-34.82 77.37,-34.82 -21.43,14.89 -35.31,12.73 -54.91,41.8 -18.25,27.07 -10.86,54.65 -10.86,78.12 13.4,-9.81 5.15,-8.34 10.18,-28.5 6.74,-27.02 27.49,-53.93 55.58,-60.47 -21.74,32.48 -54.02,76.31 -28.81,129.39l5.59 9.87c0,-29.9 -0.16,-40.66 7.16,-62.48 5.02,-14.99 17,-34.16 27.67,-41.96 -7.64,32.77 -22.07,75.84 10.57,120.95 8.09,11.17 1.28,6.46 12.64,10.58 -10.59,-22.07 -17.03,-98.61 19.35,-108.33 0,55.05 8.49,107.62 3.66,166.15l-7.88 77.72c-7.26,34.81 -27.9,-38.4 -172.04,-59.93 -40.79,-6.09 -121.51,11.42 -137.09,32.7 150.89,-35.16 200.41,10.79 305.62,81.24l-78.51 72.36c-9.93,8.48 -22.95,15 -29.8,24.35 -29.93,-20.04 -25.04,-13.04 -50.3,3.87 0,68.03 63.63,33.68 95.6,6.61 7.83,-6.63 12.04,-12.13 19.43,-19.26l66.81 -60.85c18.5,4.94 43.7,33.95 57.06,47.39 125.72,126.47 148.08,34.89 119.61,15.52 -15.44,-10.51 -27.04,-0.22 -37.4,6.72 -5,-4.35 2.21,1.2 -6.37,-5.23l-21.71 -16.98c-20.49,-18.36 -67.54,-55.54 -80.24,-74.51 18.64,-12.48 28.13,-24.29 58.2,-42.38 20.98,-12.62 40.86,-24.81 66.98,-33.6 74.23,-24.97 105.82,-21.74 176.56,-5.26 -4.5,-12.44 5.88,-2.6 -11.33,-11.89 -61.62,-33.27 -166.63,-24.79 -229.82,10.59 -19.85,11.1 -52.52,36.79 -64.47,39.98 0,-27.59 -7.74,-55.82 -7.74,-123.79 0,-21.93 0.07,-43.85 -0.01,-65.78 -0.1,-27.84 3.88,-42.59 3.88,-65.75 36.77,9.81 24.38,86.68 19.35,108.33 39.85,-26.69 31.52,-92.03 23.21,-127.66l0.02 -0z"/>
   <path class="fil0" d="M1608.31 641.86l-19.35 0c-97.41,0 -181.83,-88.94 -181.83,-185.69 0,-88.94 26.39,-150.91 100.68,-193.33 33.82,-19.31 61.95,-19.44 100.48,-19.44 59.18,0 98.8,29.99 128.72,60.85 104,107.23 42.19,337.62 -128.72,337.62l0.01 0zm-263.07 -197.3c0,239.72 293.23,329.05 432.4,177.07l27.32 -34.57c101.97,-155.37 20.75,-397.82 -216,-397.82 -136.87,0 -243.72,117.89 -243.72,255.33l0 0z"/>
   <path class="fil0" d="M1971.95 266.6c10.23,6.85 70.44,85.7 83.44,102.25 14.61,18.61 26.6,34.11 40.86,51.99 14.81,18.56 28.35,35.04 42.58,54.13 28.02,37.61 152.89,188.89 165.81,213.31l46.43 0 0 -491.32 -54.16 0c0,26.68 -2.57,347.69 1.47,366.05 3.31,15.08 10.1,23.39 14.01,40.15 -11.11,-7.44 -68.96,-84.04 -81.75,-100.07 -13.63,-17.09 -25.04,-32.85 -39.07,-49.91l-200.29 -256.21 -54.16 0 0 491.32 54.16 0c0,-29.85 3.63,-358.84 -3.15,-379.84 -5.34,-16.52 -11.59,-22.08 -16.19,-41.85l0.01 0.01z"/>
   <line class="fil2" x1="1971.95" y1="266.6" x2="2312.39" y2= "607.04" />
   <path class="fil0" d="M2312.39 607.04l1.15 1.15c-0.07,-0.07 -1.54,-0.77 -1.15,-1.15z"/>
   <path class="fil0" d="M4269.91 274.34l0 224.38c-49.19,0 -108.11,2.98 -145.98,-28.11 -68.19,-55.96 -57.28,-157.54 24.71,-201.48 39.48,-21.16 89.94,-18.01 148.34,-18.01 -15.21,13.22 -27.08,8.06 -27.08,23.22l0 0zm-247.59 104.45c0,61.39 32.95,109.37 70.31,134.72 44.31,30.07 92.51,39.38 165.67,39.38 1.08,-13.03 3.48,-17.72 11.6,-27.08 0,65.47 9.32,116.06 -92.85,116.06 -43.06,0 -57.53,-13.81 -81.25,-19.35 -5.23,10.89 -15.13,38.85 -15.47,54.16 15.84,1.32 27.56,7.86 42.46,11.7 51.4,13.24 121.07,12.17 159.69,-22.32 23.04,-20.58 41.57,-48.3 41.57,-89.97l0 -379.12c-104.56,0 -219.65,-5.99 -280.85,102.14 -9.47,16.72 -20.89,55.59 -20.89,79.69l0 -0.01z"/>
   <path class="fil0" d="M757.21 320.76c0,42.71 11.19,76 40.73,98.54 27.31,20.84 51.29,28.56 88.56,39.1 98.1,27.76 160.85,23.26 160.85,113.82 0,36.41 -51.16,69.63 -88.98,69.63 -63.71,0 -101.97,-3.64 -154.24,-43.06 -11.34,-8.55 -20.59,-18.77 -35.32,-22.7 -9.38,14.01 -22.6,26.23 -30.95,38.68 5.11,6.99 29.37,25.51 38.09,31.55 28.96,20.05 62.41,34.43 97.53,41.73 124.2,25.84 231.9,-32.82 231.9,-115.83 0,-35.68 3.28,-50.46 -15.56,-81.16 -3.58,-5.81 -8.04,-11.53 -13.74,-17.22 -4.41,-4.39 -12.06,-10.96 -16.5,-14.44 -86.72,-67.96 -244.35,-29.87 -244.35,-142.51 0,-46.78 51.2,-73.5 85.11,-73.5 128.53,0 117.04,38.16 162.48,50.29 3.35,-12.55 19.46,-28.13 27.08,-42.56 -26.43,-36.06 -115.94,-61.89 -170.22,-61.89 -82.42,0 -162.48,50.56 -162.48,131.54l0.02 0.01z"/>
   <path class="fil0" d="M262.02 692.15l50.3 0 52.84 -121.25c19.02,-42.78 33.89,-82.21 52.93,-125.02l107 -248.92 -61.89 0c-7.2,15.01 -13.79,32.37 -20.44,49.19 -20.76,52.54 -145.91,338.44 -145.91,360.88 0,19.44 3.48,17.32 3.87,34.82l-185.69 -444.89 -61.9 0 183.15 431.96c7.91,17.78 21.71,45.85 25.76,63.22l-0.01 0.01z"/>
   <path class="fil0" d="M2672.18 2696.09l-54.16 0c-7.71,-33.08 -41.98,-89.94 -42.56,-116.06 25.81,-6.89 61.72,-50.66 143.15,3.87 -14.48,27.37 -33.53,85.33 -46.42,112.19zm158.61 0l-123.79 0 37.05 -90.61c5.12,-12.19 8.31,-22.91 13.24,-33.18 -102.44,-68.6 -121.94,-68.6 -224.39,0l50.29 123.8 -104.45 0 0 -170.21 -34.81 0 0 228.24c0,13.29 -2.8,17.49 -12.89,22.19 -12.98,6.05 -13.54,1.38 -29.67,1.02 -2.48,10.64 -5.26,20.31 -7.74,30.95 9.44,0.8 49.74,13.85 71.53,-17.45 8.25,-11.85 13.19,-42.11 13.59,-59.92l382.99 0 0 -270.81 -30.95 0 0 235.99 0 -0.02z"/>
   <path class="fil0" d="M2010.64 2556.83l23.2 0 0 139.27c-33.9,0 -65.37,4.28 -89.66,-22.52 -32.6,-35.97 -19.33,-116.75 66.46,-116.75zm-116.06 73.5c0,71.01 67.19,100.59 135.41,100.59l328.84 0 0 -205.04 -30.95 0 0 170.21 -112.2 0 0 -170.21 -30.95 0 0 170.21 -116.06 0 0 -170.21 -54.17 0c-65.77,0 -119.93,39.59 -119.93,104.44l0.01 0z"/>
   <path class="fil0" d="M4502.04 583.82c0,58.59 -31.87,63.87 -73.5,54.17 -4.24,8.83 -14.5,42.46 -15.48,54.16 25.65,0 143.15,31.76 143.15,-108.33l0 -386.86 -54.17 0 0 386.86z"/>
   <polygon class="fil0" points="1194.36,688.28 1252.39,688.28 1252.39,196.97 1194.36,196.97 "/>
   <path class="fil0" d="M598.59 688.28c39.97,0 58.03,5.58 58.03,-11.61l0 -468.1c0,-17.19 -18.06,-11.6 -58.03,-11.6l0 491.32 0 -0.01z"/>
   <path class="fil0" d="M84.07 2626.46c0,-35.74 33.41,-69.63 81.24,-69.63l27.08 0 0 139.27c-39.72,0 -108.32,4.38 -108.32,-69.64zm-30.95 -7.73c0,39.08 5.9,68.63 44.04,91.35 52.47,31.26 191.3,20.83 265.45,20.83 8.92,0 11.61,-2.7 11.61,-11.61l0 -193.42 -34.82 0 0 170.21 -116.06 0 0 -170.21 -58.03 0c-54.2,0 -112.19,39.59 -112.19,92.85l-0 0z"/>
   <path class="fil0" d="M1380.05 3137.12l38.69 0 0 -147.01 33.27 47.97c9.66,14.49 24.45,40.76 36.37,48.74 3.04,-11.39 54.6,-89.24 65.77,-96.71l0 147.01 38.68 0 0 -212.78c-46,0 -40.52,-7.24 -71.87,44.19 -11.68,19.16 -22.88,34.19 -32.58,52.52 -24.87,-18.22 -54.22,-96.72 -73.5,-96.72l-34.81 0 0 212.78 -0 0.01z"/>
   <path class="fil0" d="M4180.94 3102.3l-69.63 0 0 -54.17c35.28,0 71.38,-4.42 96.71,7.74 4.96,21.25 7.59,46.41 -27.08,46.41l0 0.01zm-19.34 -88.98l-50.29 0 0 -54.17c33.04,0 60.76,-3.95 85.11,7.74 3.74,16.09 14.54,46.42 -34.82,46.42l0 0.01zm-88.98 123.8c60.21,0 177.96,15.21 177.96,-50.3 0,-21.56 -0.27,-54.83 -38.69,-58.03 16.26,-22.18 27.08,-7.62 27.08,-58.02 0,-61.22 -112.28,-46.43 -166.35,-46.43l0 212.78 0 -0.01z"/>
   <path class="fil0" d="M397.43 3125.51c0,15.8 12.13,11.6 42.56,11.6l0 -143.15 101 127.25c13.52,18.85 6.91,15.89 46,15.89l0 -212.78 -38.69 0 0 139.28c-10.77,-7.22 -105.41,-128.39 -108.31,-139.28l-42.56 0 0 201.17 -0.01 0.01z"/>
   <path class="fil0" d="M3016.48 3102.3l-34.81 0 0 -143.15c52.59,0 112.19,-4.98 112.19,81.25 0,31.92 -32.29,61.89 -77.37,61.89l0 0.01zm-77.38 34.82c75.92,0 122.06,11.56 165.46,-31.84 68.67,-68.67 18.1,-180.94 -72.61,-180.94l-92.85 0 0 212.78z"/>
   <path class="fil0" d="M958.38 3102.3l-34.82 0 0 -143.15c34.18,0 65.24,-4.46 90.13,18.19 40.03,36.43 29.89,124.94 -55.32,124.94l0.01 0.01zm-77.37 34.82c75.92,0 122.06,11.56 165.46,-31.84 68.13,-68.13 19.39,-180.94 -72.61,-180.94l-92.85 0 0 212.78z"/>
   <path class="fil0" d="M3697.36 3028.8l-50.29 0 0 -69.65c35.27,0 96.71,-9.12 96.71,34.82 0,8.28 -7.28,20.91 -13.14,25.56 -6.94,5.51 -21.7,9.27 -33.29,9.27l0 0zm-92.85 108.32l42.56 0 0 -73.5 46.42 0c5.52,20.69 39.89,49.02 46.42,73.5l46.43 0c-3.98,-14.91 -43.19,-64.86 -54.16,-81.23 71.33,-16.62 71.07,-131.54 -23.21,-131.54l-104.46 0 0 212.78 0 -0z"/>
   <path class="fil0" d="M1151.81 3028.8c0,-97.07 143.15,-94.75 143.15,0 0,22.2 -8.76,41.36 -20.1,53.4 -6.34,6.75 -10.63,10.74 -19.67,15.14 -56.65,27.52 -103.37,-19.09 -103.37,-68.54l-0.01 0zm65.77 112.19c157.71,0 159.33,-220.51 0,-220.51 -140.94,0 -141.96,220.51 0,220.51z"/>
   <path class="fil0" d="M1836.55 2955.3c70.08,0 92.98,81.54 56.61,126.24 -34.67,42.6 -118.16,29.15 -125.42,-45.93 -3.97,-41.03 31.12,-80.33 68.81,-80.33l0 0.01zm-108.33 61.9c0,31.57 -2.56,38.87 11.44,65.94 51.47,99.55 212.94,63.83 212.94,-50.46 0,-30.74 -13.47,-58.86 -28.13,-76.33 -60.32,-71.91 -196.26,-28.68 -196.26,60.85z"/>
   <path class="fil0" d="M633.41 3017.19c0,37.62 -1.68,64.43 31.72,95.94 37.22,35.12 105.54,36.33 149.89,8.3 11.31,-7.15 5.64,-7.69 19.55,-11.4l0 -92.85 -92.85 0 0 34.81 54.16 0c0,24.55 9.96,54.17 -54.16,54.17 -104.62,0 -84.34,-191.57 34.44,-142.76 15.66,6.42 13.44,11.35 27.46,15.08 19.16,-28.62 17.8,-16.3 19.35,-34.81 -33.93,-9.07 -12.65,-23.22 -92.85,-23.22 -46.24,0 -96.71,50.48 -96.71,96.71l0 0.02z"/>
   <path class="fil0" d="M80.19 3137.12l42.56 0c0,-56.77 -8.65,-66.33 30.95,-92.85 5.66,8.45 9.88,11.86 17.17,21.52l52.46 71.33 46.43 0c-2.88,-10.77 -33.07,-46.69 -43.66,-60.79l-45.32 -59.13 62.82 -68.71c8.89,-9.56 15.2,-13.54 22.29,-24.14 -56.57,0 -39.19,-5.28 -82.2,37.72 -20.78,20.77 -45.5,52.54 -60.93,62.87l0 -100.58 -42.56 0 0 212.78 0 -0.02z"/>
   <path class="fil0" d="M2567.72 2974.63l7.73 0c1.06,12.67 24.85,65.84 30.95,77.37l-69.63 0c4.47,-19.18 25.96,-55.98 30.95,-77.37l-0 0zm-108.32 162.48l42.56 0c3.54,-15.17 12.95,-36.98 19.35,-50.3l100.58 0c4.29,18.42 15.39,33.33 19.35,50.3l42.56 0 -92.85 -216.64 -38.69 0 -92.85 216.64 -0 0z"/>
   <path class="fil0" d="M4482.69 2970.77c2.59,11.1 11.44,29.19 16.8,41.23 6.6,14.82 11.17,27.07 18.03,40l-69.63 0 34.81 -81.23 -0 -0zm-112.19 166.35l42.56 0c0.98,-11.67 14.42,-40.99 19.35,-50.3l100.58 0c3.53,15.17 12.95,36.98 19.35,50.3l42.56 0 -47.5 -107.25c-15.84,-37.06 -31.4,-75.71 -49.22,-109.39l-34.81 0c-4.91,21.07 -88.85,199.47 -92.85,216.64l-0 0z"/>
   <path class="fil0" d="M3461.37 2970.77c2.37,10.17 11.64,30.28 16.78,41.25 6.46,13.83 11.65,27.92 18.05,39.98l-69.63 0c3.24,-13.88 10.81,-28.1 16.55,-41.48l18.27 -39.76 -0.01 -0zm-112.2 166.35l42.56 0c0.98,-11.67 14.43,-40.99 19.35,-50.3l100.58 0c2.62,11.24 14.35,39.9 19.35,50.3l42.56 0c-4.92,-9.3 -7.32,-17.34 -11.67,-27.02l-85.05 -189.63 -34.81 0 -46.36 108.38c-8.2,18.27 -15.34,35.59 -23.39,53.98 -5.87,13.4 -20.05,41.17 -23.11,54.27l0.01 0.01z"/>
   <path class="fil0" d="M3925.61 2970.77c0.55,0.77 1.2,1.14 1.41,2.46 0.28,1.8 2.29,4.09 2.75,4.98l30.67 73.79 -69.63 0 34.81 -81.23 -0 0zm-108.32 166.35l38.68 0c6.39,-13.31 15.81,-35.12 19.35,-50.3l100.58 0c4.92,9.31 18.37,38.63 19.35,50.3l42.56 0 -82.47 -192.2c-11.77,-25.79 -1.85,-24.44 -37.46,-24.44 -11.44,0 -13.76,10.45 -17.84,20.85l-59.64 137.65c-5.54,12.66 -22,44.8 -23.11,58.13l0 0z"/>
   <path class="fil0" d="M2703.12 3048.13c0,61.01 35.59,92.85 96.72,92.85 109.02,0 88.98,-120.48 88.98,-216.64l-38.68 0c0,85.19 15.87,176.38 -51.03,180.89 -75.04,5.06 -57.3,-105.13 -57.3,-180.89l-38.69 0 0 123.79 -0.01 0z"/>
   <path class="fil0" d="M2281.44 2978.5c0,90.19 119.93,54.18 119.93,100.59 0,17.34 -16.97,27.08 -34.82,27.08 -33.43,0 -49.85,-13.83 -69.63,-27.08 -9.02,6.61 -20.34,20.21 -23.2,30.94 8.91,2.39 82.62,59.69 145.52,13.99 20.82,-15.13 45.13,-78.69 -27.12,-105.31 -18.85,-6.94 -68.9,-12.62 -71.98,-36.35 -0.79,-6.12 5.54,-27.08 34.82,-27.08 27.63,0 40.14,14.57 58.03,19.35 8.96,-6.57 16.37,-18.14 19.35,-30.94 -12.44,-3.32 -74.42,-46.17 -127.95,-8.04 -9.68,6.89 -22.92,27.1 -22.92,42.85l-0.02 -0z"/>
   <polygon class="fil0" points="1995.17,3137.12 2037.72,3137.12 2037.72,3052 2142.18,3052 2142.18,3013.32 2037.72,3013.32 2037.72,2959.15 2157.65,2959.15 2157.65,2924.34 1995.17,2924.34 "/>
   <path class="fil0" d="M478.66 2556.83c86.64,0 73.5,28.41 73.5,139.27l-139.27 0 0 34.82 170.22 0 0 -131.53c0,-39.54 -33.96,-73.5 -73.5,-73.5l-30.95 0 0 30.94 -0.01 0z"/>
   <path class="fil3" d="M1294.94 2228c24.75,0 80.6,-13.8 104.46,-19.35 0,-17.67 -14.38,-94.12 -19.35,-104.45 -13.96,3.26 -96.12,17.61 -100.4,22.44 -6.3,7.13 -2.49,-0.43 -1.63,9.26 1.35,15.24 16.92,65.21 16.92,92.09l0 0z"/>
   <path class="fil4" d="M2242.76 2208.65c2.79,-11.95 14.86,-99.54 12.63,-103.68 -3.71,-6.9 -26.37,-6.16 -47.45,-8.51 -65.69,-7.33 -55.29,-18.63 -62.6,41.85 -0.85,7.03 -7.76,48.73 -5.21,53.01 5.28,8.89 22.4,7.01 48.15,9.92 16.25,1.84 38.65,6.1 54.49,7.42l-0.01 -0.01z"/>
   <path class="fil5" d="M997.06 1837.26l92.85 42.56c8.07,-15.26 16.29,-31.21 22.67,-46.96 7.19,-17.74 19.43,-33 19.88,-53.62 -29.46,-6.86 -73.02,-36.71 -96.72,-38.68 -6.39,27.46 -36.79,73.82 -38.69,96.72l0 -0.02z"/>
   <path class="fil6" d="M981.58 1338.2c3.14,13.49 15.41,32.33 23.41,46.22 8.56,14.87 18.71,31.19 26.88,46.62l92.85 -50.29c-8.18,-15.47 -15.33,-28.69 -24.86,-44.77 -7.38,-12.48 -22.48,-35.41 -25.44,-48.07 -11.62,2.71 -14.61,5.02 -24.01,10.81l-68.84 39.48 0 -0.01z"/>
   <path class="fil7" d="M1352.97 1044.19c0,-28.67 9.08,-74.14 11.61,-104.46 -21.3,-0.48 -52.43,-5.7 -77.17,-8.21 -17.75,-1.8 -24.73,-10.06 -30.24,4.98l-9.16 81.07c-0.22,20.71 4.4,18.48 23.41,19.19 28.17,1.06 52.35,7.42 81.56,7.42l0.01 0.01z"/>
   <path class="fil3" d="M2122.83 924.27c0,34.78 15.48,67.33 15.48,104.44 38,0 69.78,-14.7 104.45,-15.46 0,-24.04 -3.62,-33.66 -6.68,-51.36 -3.1,-17.91 -8.44,-36.97 -8.8,-53.09 -35.58,0 -68.87,15.47 -104.45,15.47z"/>
   <path class="fil8" d="M2382.02 1357.55l72.19 32.27c10.84,5.11 12.54,7.5 24.53,10.3 6.99,-30.02 34.47,-62.01 42.56,-96.71 -27.61,-6.43 -68.3,-35.93 -96.71,-42.56 -6.62,28.42 -36.12,69.1 -42.56,96.71l0 -0z"/>
   <path class="fil7" d="M1681.81 846.89l39.71 33.8c13.14,13.21 24.3,24.22 37.67,35.84 3.53,-2.36 66.19,-64.48 69.63,-77.38 -8.42,-12.57 -22,-25.63 -34.24,-35.39 -14.24,-11.36 -26.67,-25.82 -39.26,-34.25l-73.5 77.37 0 0z"/>
   <path class="fil9" d="M2385.9 1759.89c16.8,31.76 33.72,61.54 50.29,92.85 31.19,-16.5 61.46,-33.69 92.85,-50.29 -16.6,-31.39 -33.8,-61.68 -50.29,-92.85l-92.85 50.29z"/>
   <path class="fil10" d="M1697.29 2301.5c10.09,6.75 63.69,54.98 73.5,69.63l73.5 -77.37c-4.44,-6.62 -65.56,-66.48 -77.37,-69.63 -8.73,5.85 -9.6,9.65 -16.65,18.17 -6.24,7.55 -12.15,12.61 -19.13,19.55 -16,15.93 -21.36,21 -33.85,39.66l0 -0.01z"/>
   <path class="fil0" d="M4208.02 115.72l0 30.95 116.06 0 0 -42.56 -69.63 0c0,-32.64 -6.09,-27.08 54.17,-27.08l0 -38.69 -43.84 0c-32.59,2.21 -56.74,15.12 -56.74,77.37l-0.01 0z"/>
   <path class="fil0" d="M1716.62 2719.3c0,16.99 34.82,16.99 34.82,0l0 -259.19 -34.82 0 0 259.19z"/>
   <polygon class="fil0" points="2946.85,2730.91 2977.8,2730.91 2977.8,2460.11 2946.85,2460.11 "/>
   <polygon class="fil0" points="4525.24,2730.91 4556.2,2730.91 4556.2,2460.11 4525.24,2460.11 "/>
   <polygon class="fil0" points="4297,3137.12 4335.69,3137.12 4335.69,2924.34 4297,2924.34 "/>
   <polygon class="fil0" points="3182.83,3137.12 3221.52,3137.12 3221.52,2924.34 3182.83,2924.34 "/>
   <polygon class="fil0" points="304.58,3137.12 343.26,3137.12 343.26,2924.34 304.58,2924.34 "/>
   <path class="fil5" d="M1499.98 978.43c-27.6,-0.62 -52.11,-7.74 -85.11,-7.74 -3.98,17.12 -6.24,42.36 -8.18,62.13 -2.39,24.42 -10.28,20.63 39.83,26.16 51.29,5.67 44.86,22.93 53.47,-80.56l-0.01 0.01z"/>
   <path class="fil3" d="M1082.17 1701.86l77.37 34.82c7.14,-13.48 33.58,-66.36 34.82,-81.23 -29.66,-6.91 -48.62,-24.26 -77.37,-30.95 -12.54,23.7 -22.27,53.67 -34.82,77.37l0 -0.01z"/>
   <path class="fil7" d="M1275.6 1984.27c0,14.47 9.68,76.21 14.73,81.03 7.52,7.16 50.15,-11.4 81.98,-11.4 0,-22.42 -10.65,-64.38 -15.48,-85.11 -19.93,0.44 -61.93,10.97 -81.25,15.47l0.01 0z"/>
   <path class="fil11" d="M2002.91 1051.93c12.49,0 77.01,-10.48 81.33,-15.03 6.83,-7.19 -9.45,-72.05 -11.69,-81.69 -12.18,0 -77.18,10.67 -80.99,14.7 -5.3,5.59 1.38,26.38 3.95,39.13 2.33,11.46 6.39,30.69 7.41,42.9l-0.01 -0.01z"/>
   <path class="fil12" d="M1793.13 942.74c4.59,14.82 47.54,52.57 62.77,62.77 23.93,-35.73 40.18,-41.02 54.17,-61.89 -10.57,-15.78 -45.64,-47.15 -61.9,-58.03l-55.04 57.15z"/>
   <path class="fil6" d="M2002.91 2154.48c18.1,0.4 68.36,7.71 85.11,11.61 4.82,-20.68 9.74,-62.59 11.6,-85.11 -16.74,-3.91 -67,-11.2 -85.11,-11.61 -0.4,18.11 -7.7,68.36 -11.6,85.11z"/>
   <path class="fil13" d="M1345.24 1098.35c-29.02,-2.41 -50.62,-7.73 -85.11,-7.73 -3.99,17.11 -6.24,42.36 -8.18,62.13 -2.7,27.59 -8.15,19.52 40.28,25.72 50.05,6.41 43.9,6.93 45.59,-13.92 1.77,-21.65 2.87,-46.62 7.42,-66.19l-0 -0z"/>
   <path class="fil6" d="M1434.22 2096.46c2.18,26.18 13.29,55.07 15.48,81.24 17.18,0 74.82,-10.54 85.11,-15.48 -4.5,-19.31 -15.04,-61.31 -15.48,-81.23 -22.42,0 -64.37,10.65 -85.11,15.46z"/>
   <path class="fil11" d="M2161.51 2038.43c28.42,0 51.26,7.74 85.11,7.74 0,-30.34 7.73,-52.02 7.73,-85.12 -33.09,0 -54.76,-7.73 -85.11,-7.73 0,33.08 -7.73,54.76 -7.73,85.11z"/>
   <path class="fil10" d="M1147.94 1887.55c29.66,6.91 48.63,24.26 77.37,30.95 6.07,-11.48 12.16,-23.03 17.71,-36.44 6.17,-14.95 14.01,-27.61 17.11,-40.92 -24.35,-5.67 -55.7,-30.38 -81.23,-30.95 -1.76,21.15 -25.37,53.43 -30.95,77.37l-0.01 -0.01z"/>
   <path class="fil5" d="M1809.47 2185.44c2.08,3.11 50.31,51.07 61.9,54.16 3.3,-2.41 51.29,-53.75 54.16,-58.03 -14.47,-21.59 -40.09,-43.43 -61.9,-58.03 -0.88,0.65 -50.92,49.77 -54.16,61.9l0 -0z"/>
   <path class="fil5" d="M2258.24 1295.65c25.99,6.05 51.38,28.76 77.37,34.82 3.33,-14.27 10.13,-24.19 16.8,-37.36 7.24,-14.35 11.23,-27.18 18.03,-40.01l-77.37 -34.81c-10.15,19.18 -29.73,55.52 -34.82,77.37l-0 -0.01z"/>
   <path class="fil6" d="M2262.09 1821.79c13.21,24.96 25.6,48.77 38.69,73.5 19.12,-1.59 25.11,-10.08 39.96,-18.07 15.37,-8.27 23.99,-11.62 37.41,-20.61 -8.79,-16.62 -35.23,-58.67 -38.69,-73.51 -19.88,4.63 -57.02,33.26 -77.37,38.69l-0 0z"/>
   <path class="fil5" d="M2320.13 1636.1c8.55,16.16 34.69,58.52 38.69,73.5 17.22,-1.43 24.46,-10.4 39.94,-18.09 15.41,-7.64 23.93,-13.46 37.42,-20.61 -13.09,-24.74 -25.48,-48.54 -38.69,-73.5 -23.95,5.58 -55.21,32.77 -77.37,38.69l0.01 0z"/>
   <path class="fil4" d="M2320.13 1481.35l77.37 34.82c3.17,-13.61 10.32,-24.11 16.02,-38.14 5.34,-13.15 12.04,-26.46 18.8,-39.23l-77.37 -34.82c-8.3,15.69 -33.35,59.8 -34.82,77.37l0.01 0z"/>
   <path class="fil5" d="M2146.04 1082.88c3.36,14.44 5.52,25.62 8.26,42.04 2.21,13.26 6.88,28.17 7.21,43.07 21.98,-5.12 62.52,-13.6 85.11,-15.48 -2.19,-26.28 -13.29,-58.82 -15.48,-85.11 -21.98,5.13 -62.52,13.6 -85.11,15.48z"/>
   <path class="fil14" d="M1132.46 1280.17c4.07,17.51 27.86,53.04 38.69,73.5 14.81,-3.45 57.05,-29.98 73.5,-38.68 -3.45,-14.8 -29.98,-57.04 -38.68,-73.5 -17.51,4.07 -53.04,27.86 -73.5,38.68z"/>
   <path class="fil7" d="M1074.43 1465.87l42.56 77.37c23.11,-15.48 50.63,-27.24 73.5,-42.56 -9.43,-17.81 -35.07,-57.96 -38.69,-73.5 -24.61,5.74 -52.75,32.95 -77.37,38.68l0 0.01z"/>
   <path class="fil8" d="M1596.7 943.61l58.91 61.03 58.09 -56.22c-4.47,-14.4 -46.28,-54.33 -58.96,-62.83 -23.57,15.79 -33.65,41.7 -58.03,58.03l-0 -0z"/>
   <path class="fil4" d="M1612.17 2189.31c19.15,12.81 40.3,39.69 61.9,54.16 22.64,-15.17 28.29,-38.11 58.03,-58.03l-61.9 -58.03c-17.47,11.7 -46,43.94 -58.03,61.9l0 -0z"/>
   <path class="fil13" d="M2060.93 1864.34c-6.21,6.21 -3.77,11.06 -6.7,32.13 -4.69,33.81 -16.14,33.41 49.02,38.71 13.31,1.07 13.69,9.25 18.99,-32.87 1.56,-12.35 5,-26.37 0.67,-30.72 -5.52,-5.56 -39.93,-7.67 -49.96,-7.96 -14.74,-0.4 -5.24,-6.07 -12.02,0.71l0 0z"/>
   <path class="fil4" d="M1496.11 1179.59c28.02,0 38.74,3.87 65.77,3.87 0.43,-19.18 7.31,-46.58 7.73,-65.77 -64.3,0 -73.5,-37.29 -73.5,61.9z"/>
   <path class="fil8" d="M1503.85 1957.19c0.51,22.48 9.8,43.96 11.6,65.76 22.48,-0.5 43.96,-9.79 65.77,-11.6 -0.5,-22.5 -9.8,-43.97 -11.6,-65.77 -22.48,0.51 -43.96,9.8 -65.77,11.6l0 0.01z"/>
   <path class="fil13" d="M1960.35 2115.8c1.73,-20.83 7.73,-42.35 7.73,-65.76 -20.03,0 -46.85,-6.17 -65.77,-7.73 -5.49,66.06 -31.36,73.5 58.03,73.5l0.01 -0.01z"/>
   <path class="fil5" d="M1937.14 1121.57c3.89,16.68 11.19,47.23 11.6,65.76 20.57,-1.71 44.15,-9.8 65.77,-11.6 0,-15.22 -6.91,-55.99 -11.6,-65.77 -15.5,0.34 -50.85,8.13 -65.77,11.61l0 0.01z"/>
   <path class="fil3" d="M2134.43 1373.02l61.89 27.08c5.5,-23.65 21.57,-38.26 27.08,-61.9 -23.64,-5.5 -38.26,-21.57 -61.9,-27.08 -2.91,12.47 -7.15,18.35 -12.91,29.64 -6.21,12.15 -8.91,21.31 -14.17,32.26l0 0z"/>
   <path class="fil9" d="M1604.44 1086.76c0,-28.02 3.87,-38.76 3.87,-65.77 -14.9,0 -52.85,-4.72 -65.77,-7.73 0,65.75 -36.5,73.5 61.9,73.5z"/>
   <path class="fil15" d="M2227.28 1407.85l61.9 27.08c5.5,-23.65 21.58,-38.26 27.08,-61.9 -23.64,-5.5 -38.26,-21.57 -61.9,-27.08 -2.99,12.85 -7.19,17.81 -12.93,29.62 -5.9,12.11 -8.42,21.45 -14.15,32.28l-0 0z"/>
   <path class="fil5" d="M1244.66 1481.35c10.55,19.93 20.4,38.09 30.95,58.03 12.71,-3.38 44.19,-23.63 58.03,-30.94 -3.33,-14.28 -23.08,-46.28 -30.95,-58.04 -15.04,3.51 -43.39,23.2 -58.03,30.95z"/>
   <path class="fil15" d="M1407.13 1984.27c4.09,17.59 11.6,45.74 11.6,65.76 18.54,-0.42 49.08,-7.72 65.76,-11.6 0,-16.65 -6.68,-55.51 -11.61,-65.76 -21.81,1.81 -43.28,11.1 -65.77,11.6l0.01 0z"/>
   <path class="fil15" d="M1457.43 1106.09c-20.03,0 -46.85,-6.17 -65.77,-7.74 -1.67,75.22 -26.7,65.48 22.44,70.46 30.14,3.06 43.32,23.44 43.32,-62.72l0 0z"/>
   <path class="fil4" d="M1937.14 2015.21c21.31,0 48.34,3.68 65.77,7.73 0.5,-22.39 7.73,-44.76 7.73,-69.63 -15.23,0 -56.54,-3.31 -65.77,-7.74 -1.91,22.95 -7.73,43.05 -7.73,69.63l0 0.01z"/>
   <path class="fil10" d="M2134.43 1763.75c2.64,11.36 24.35,48.19 30.95,58.04 19.86,-4.62 34.34,-21.56 58.03,-27.08 -4.42,-18.97 -21.87,-44.72 -30.95,-61.89 -19.93,10.55 -38.09,20.4 -58.03,30.94l0 -0.01z"/>
   <path class="fil8" d="M1167.28 1593.54c10.23,5.42 18.13,7.48 29.67,12.89 12.5,5.83 18.7,11.05 32.22,14.2 3.55,-15.25 19.89,-48.33 27.08,-61.9l-61.89 -27.08 -27.08 61.89 0 0.01z"/>
   <path class="fil10" d="M1244.66 1663.18c15.24,3.55 48.32,19.89 61.89,27.08 9.6,-20 17.48,-41.89 27.08,-61.9 -10.22,-5.41 -18.12,-7.48 -29.67,-12.87 -12.49,-5.83 -18.7,-11.06 -32.22,-14.2l-27.08 61.9z"/>
   <path class="fil12" d="M1279.47 1910.76c13.57,7.19 46.65,23.53 61.9,27.08 4.62,-19.83 21.54,-41.89 23.21,-61.89 -10.26,-4.93 -18.18,-6.95 -29.65,-12.91 -12.02,-6.24 -15.5,-9.94 -32.25,-10.3 -5.05,21.67 -18.74,38.87 -23.2,58.03l0 -0.01z"/>
   <path class="fil3" d="M1387.8 1875.95c0,20.02 7.51,48.17 11.61,65.76 21.8,-1.81 43.28,-11.1 65.77,-11.6 -4.09,-17.59 -11.6,-45.74 -11.6,-65.76 -20.02,0 -48.17,7.51 -65.77,11.61z"/>
   <path class="fil7" d="M2045.46 2026.82c22.95,1.92 43.05,7.73 69.63,7.73 0,-21.31 3.68,-48.34 7.73,-65.76 -20.9,-0.47 -47.86,-7.74 -69.63,-7.74 0,17.5 -2.55,54.96 -7.73,65.77l0 0z"/>
   <path class="fil10" d="M2033.85 1094.49c1.8,21.62 9.89,45.2 11.61,65.77 18.54,-0.41 49.08,-7.72 65.77,-11.6 -1.8,-21.62 -9.89,-45.2 -11.61,-65.76 -21.8,1.81 -43.28,11.1 -65.77,11.61l0 -0.01z"/>
   <path class="fil12" d="M2180.86 1508.43c23.64,5.5 38.26,21.57 61.9,27.08 4.37,-18.76 18.62,-45.92 27.08,-61.89l-61.9 -27.09c-5.42,10.22 -7.48,18.12 -12.89,29.67 -5.83,12.49 -11.05,18.7 -14.19,32.23z"/>
   <path class="fil5" d="M1383.93 1264.7c19.19,0.43 46.58,7.31 65.77,7.74l4.58 -53.74c0.04,-1.3 0.11,-4.81 0.07,-5.83 -0.19,-6.73 1.69,-0.95 -0.79,-6.2 -9.24,-4.43 -50.53,-7.73 -65.77,-7.73 0,25.29 -3.87,37.55 -3.87,65.76l0 -0.01z"/>
   <path class="fil16" d="M1294.94 1798.57c23.27,5.41 35.09,20.98 61.9,23.21 5.04,-21.67 18.75,-38.85 23.2,-58.04 -18.04,-9.54 -40.26,-22.03 -61.9,-27.08 -4.62,19.84 -21.54,41.89 -23.21,61.89l0 0.01z"/>
   <path class="fil4" d="M1264 1245.36c4.94,18.52 22.61,35 27.08,54.17 14.13,-1.17 47.43,-23.29 61.9,-30.95 -7.75,-14.63 -27.45,-42.99 -30.95,-58.03 -13,3.03 -51.4,25.78 -58.03,34.81z"/>
   <path class="fil3" d="M1720.49 2111.93c17.67,11.84 34.64,24.95 46.43,42.56 11.52,-7.71 42.96,-37.34 46.42,-50.29 -2.74,-3.74 -41.74,-39.43 -46.42,-42.56 -13.13,8.79 -38.02,37.74 -46.43,50.29l0 -0.01z"/>
   <path class="fil6" d="M1198.22 1763.75l61.9 27.09 27.08 -61.9 -61.9 -27.08c-3.55,15.25 -19.89,48.32 -27.08,61.89z"/>
   <path class="fil13" d="M2157.65 1218.29c3.98,17.06 10.08,43.53 11.6,61.89 26.61,0 41.12,-7.73 65.77,-7.73 0,-11.08 -8.11,-63.45 -13.01,-66.39 -4.4,-2.64 -55.7,8.06 -64.36,12.23l0 -0z"/>
   <path class="fil4" d="M2064.8 1268.57c26.6,0 41.11,-7.74 65.77,-7.74 0,-20.98 -7.38,-51.49 -11.61,-69.63 -38.72,18.59 -66.8,-3.15 -62.98,27.2 0.83,6.57 2.28,12.11 3.26,16.91 2.76,13.42 5.28,20.14 5.57,33.26l-0.01 0.01z"/>
   <path class="fil11" d="M2176.99 1628.35c10.56,19.95 20.58,38.43 30.95,58.02 13.96,-3.72 44.17,-23.61 58.03,-30.94 -3.04,-11.4 -24.22,-47.98 -30.95,-58.04 -9.5,5.04 -17.69,8.68 -28.43,14.13 -12.65,6.42 -18.22,10.8 -29.6,16.81l0 0.01z"/>
   <path class="fil9" d="M1190.49 1396.24c1.38,16.49 21.69,48.08 30.95,61.9 14.63,-7.75 42.99,-27.44 58.03,-30.96 -10.55,-19.93 -20.41,-38.09 -30.95,-58.03 -23.69,5.52 -38.17,22.45 -58.03,27.08l0 0.01z"/>
   <path class="fil10" d="M1287.21 1342.08c1.81,21.77 21.69,37.81 27.08,58.04 16.49,-1.37 48.07,-21.69 61.9,-30.95 -10.95,-16.35 -21.48,-36.26 -30.95,-54.17 -12.54,1.04 -45.18,20.28 -58.03,27.08z"/>
   <path class="fil17" d="M2258.24 1578.06l61.9 27.08c5.42,-23.27 20.98,-35.1 23.21,-61.89l-58.03 -27.08c-5.5,23.64 -21.57,38.26 -27.08,61.89z"/>
   <path class="fil18" d="M2157.65 1864.34c1.05,12.54 20.28,45.19 27.08,58.03 25.8,-2.14 40.11,-22.01 61.9,-27.08 -10.55,-19.93 -20.4,-38.11 -30.95,-58.04 -21.9,5.1 -40.28,22.34 -58.03,27.08l0 0.01z"/>
   <path class="fil12" d="M1639.26 2030.7c6.89,10.28 15,16.81 24.17,26.12 10.46,10.65 13.42,18.91 30,20.3 5.49,-20.58 27.75,-30.09 38.69,-46.42 -8.79,-13.13 -37.74,-38.02 -50.3,-46.42 -11.84,17.67 -24.94,34.63 -42.56,46.42l0 -0z"/>
   <path class="fil8" d="M2231.16 1709.59c10.56,19.94 20.58,38.43 30.95,58.03 23.69,-5.52 38.17,-22.45 58.03,-27.09 -1.03,-12.33 -23.47,-50.74 -30.95,-61.89 -10.06,6.73 -46.64,27.91 -58.02,30.95z"/>
   <path class="fil15" d="M1549.42 2084c10.67,15.5 33.64,35.41 47.29,47.27l46.42 -50.29c-15.7,-10.52 -33.87,-31.56 -50.3,-42.56l-43.41 45.58z"/>
   <path class="fil17" d="M1781.46 2029.77c9.48,13.7 13.72,13.31 25.07,23.21 8.98,7.8 16.06,14.87 22.27,24.15 10.19,-6.82 17.22,-14.26 25.46,-24.84 8.51,-10.94 17.34,-15.73 20.97,-29.33 -20.58,-5.48 -30.09,-27.74 -46.43,-38.69l-47.35 45.5 0.01 0z"/>
   <path class="fil7" d="M1878.18 1047.13c3.45,4.7 46.38,44.11 51.21,47.34 22.12,-33.04 30.97,-32.98 42.56,-50.29l-45.57 -43.41 -48.19 46.36 -0 0z"/>
   <path class="fil15" d="M1708.04 1020.14l44.26 46.41c9.43,-6.03 15.95,-14.15 25.27,-23.31 10.65,-10.46 18.92,-13.42 20.3,-30 -20.58,-5.49 -30.09,-27.75 -46.43,-38.69l-43.41 45.57 0.01 0.01z"/>
   <path class="fil10" d="M1631.52 1094.49l46.42 42.56 45.59 -43.41c-5.65,-8.84 -12.62,-14.52 -21.39,-23.33 -9.31,-9.36 -14.3,-18.57 -28.06,-22.24l-42.56 46.42 -0 0z"/>
   <path class="fil5" d="M1790.13 1098.35l43.41 45.58 46.49 -44.65 -46.43 -48.28c-7.13,5.07 -38.93,40.55 -43.48,47.34l0 0.01z"/>
   <path class="fil0" d="M3867.58 750.18c0,55.7 -9.74,46.42 54.16,46.42l0 -58.02c-37.76,0 -54.16,-5.24 -54.16,11.6z"/>
   <path class="fil0" d="M3763.13 750.18c0,55.7 -9.74,46.42 54.16,46.42l0 -58.02c-37.76,0 -54.16,-5.24 -54.16,11.6z"/>
   <polygon class="fil0" points="2888.82,146.68 2942.98,146.68 2942.98,92.52 2888.82,92.52 "/>
   <polygon class="fil0" points="2784.37,146.68 2838.52,146.68 2838.52,92.52 2784.37,92.52 "/>
   <path class="fil12" d="M1592.83 1202.81c49.67,0 47.7,18.39 51.53,-26.72 1.39,-16.38 11,-18.28 -24.44,-20.33 -17.1,-0.99 -25.76,-12.7 -27.09,47.06l0 -0z"/>
   <path class="fil13" d="M1863.63 1937.85c0,19.44 -3.48,17.32 -3.87,34.82 52.01,0 48.64,23.73 54.17,-42.56 -23.75,-1.97 -11.23,-3.87 -50.3,-3.87l0 11.6 0 0.01z"/>
   <path class="fil5" d="M2134.43 1574.19c11.65,6.17 29.09,16.21 42.56,19.35 7.19,-13.59 11.97,-28.62 19.34,-42.56 -11.65,-6.17 -29.09,-16.2 -42.56,-19.35 -6.17,11.65 -16.21,29.09 -19.35,42.56l0.01 0z"/>
   <path class="fil11" d="M1333.64 1709.59c11.89,6.28 32.19,16.02 46.42,19.35 4.43,-19.01 11.75,-26.57 15.48,-42.56 -11.65,-6.17 -29.09,-16.2 -42.56,-19.35 -7.03,14.63 -11.72,28.15 -19.35,42.56l0 0z"/>
   <path class="fil7" d="M2118.96 1450.4c18.81,4.39 22.48,13.81 42.56,15.47 6.17,-11.65 16.21,-29.09 19.35,-42.56 -20.76,-4.83 -22.02,-14.93 -46.43,-15.48 -3.72,15.98 -11.04,23.54 -15.48,42.56l-0 0z"/>
   <path class="fil7" d="M1387.8 1322.74c7.93,14.99 15.28,27.56 23.21,42.56 14.29,-7.56 27.64,-15.31 42.56,-23.21 -6.24,-9.31 -20.22,-31.34 -23.21,-42.56 -14.29,7.57 -27.64,15.31 -42.56,23.21z"/>
   <path class="fil4" d="M1318.15 1585.8c14.63,7.02 28.15,11.71 42.56,19.35 8.61,-36.95 32.91,-38.31 -0.74,-53.43 -10.41,-4.67 -13.33,-7.4 -26.33,-8.48 -4.38,18.81 -13.8,22.48 -15.48,42.56l0 -0z"/>
   <path class="fil5" d="M2057.06 1790.84c4.07,15.28 14.89,23.42 19.35,42.56 19.44,-4.53 21.11,-14.34 42.56,-19.35 -1.38,-16.53 -8.43,-21.96 -19.35,-42.56 -13.46,3.14 -30.9,13.18 -42.56,19.35z"/>
   <path class="fil18" d="M1852.02 1183.46c14.27,3.81 23.7,16.24 30.95,27.08l31.86 -30.03c-4.96,-16.11 -20.2,-27.93 -31.86,-35.73 -12.21,8.17 -29.4,20.04 -30.95,38.69z"/>
   <path class="fil12" d="M1403.27 1790.84c0.39,17.67 6.37,29.9 7.73,46.41 16.51,-1.38 28.75,-7.34 46.42,-7.73 -0.39,-17.67 -6.36,-29.91 -7.73,-46.42 -17.54,0 -32.02,4.39 -46.43,7.74l0 -0z"/>
   <path class="fil13" d="M1329.76 1434.93c2.99,11.2 16.97,33.24 23.21,42.56 12.85,-8.61 25.84,-14.61 38.69,-23.21 -4.53,-19.44 -14.35,-21.13 -19.35,-42.56 -14.92,7.9 -28.26,15.65 -42.56,23.22l0.01 0z"/>
   <path class="fil4" d="M1492.25 1879.82c0,20.67 3.9,33.83 7.73,50.29 13.26,-6.37 33.16,-5.24 46.42,-11.6 -15.7,-67.39 2.31,-38.69 -54.16,-38.69l0 0z"/>
   <path class="fil13" d="M2118.96 1678.65c3.14,13.45 13.18,30.89 19.35,42.56 19.12,-4.46 27.28,-15.26 42.56,-19.35 -5,-21.44 -14.81,-23.12 -19.35,-42.56 -19.13,4.45 -27.28,15.26 -42.56,19.35z"/>
   <path class="fil13" d="M1975.83 1918.5l46.34 4.61c0.46,-17.62 3.96,-24.97 3.96,-47.17 -24.98,-5.83 -16.47,-3.87 -46.42,-3.87 0,19.39 -3.87,23.82 -3.87,46.43l-0 0z"/>
   <path class="fil12" d="M1971.95 1214.42c2.89,12.43 7.42,28.1 7.74,42.56 22.61,0 27.03,-3.87 46.42,-3.87 0,-11.52 -1.85,-43.86 -8.69,-47.5 -4.09,-2.17 -38.59,5.52 -45.48,8.82z"/>
   <path class="fil19" d="M1727.33 1975.62c8.72,12.56 20.53,27.79 35.73,31.86 9.2,-6.16 24.62,-25.36 30.95,-34.81 -11.25,-7.54 -22.78,-19.02 -34.81,-27.08l-31.86 30.04 -0.01 -0.01z"/>
   <path class="fil11" d="M1480.63 1256.97c21.13,1.76 10.56,3.87 46.43,3.87 0.34,-15.25 3.86,-17.02 3.86,-46.41l-46.34 -4.62c-0.46,17.61 -3.96,24.96 -3.96,47.18l0.02 -0.01z"/>
   <path class="fil16" d="M2060.93 1303.39l4.61 46.33c17.46,0.09 37.7,-1.96 49.54,-7.65 -15.7,-67.38 2.31,-38.69 -54.17,-38.69l0.01 0.01z"/>
   <path class="fil12" d="M1604.44 1961.06c20.65,5.52 14.16,17.7 34.81,23.21 4.83,-3.55 23.35,-25.39 27.08,-30.95l-30.04 -31.86c-13.12,9.09 -30.3,20.96 -31.86,39.59l0.01 0z"/>
   <polygon class="fil7" points="1727.33,1151.61 1758.26,1184.37 1791.04,1153.43 1760.09,1120.66 "/>
   <path class="fil0" d="M2215.67 2785.08c0,8.91 2.7,11.6 11.6,11.6l23.21 0 0 -34.81 -34.82 0 0 23.22 0.01 -0.01z"/>
   <path class="fil0" d="M2324 2773.46c0,26.48 -2.46,23.21 34.82,23.21l0 -34.81c-24.89,0 -34.82,-3.44 -34.82,11.6z"/>
   <path class="fil0" d="M292.97 2796.67c37.29,0 34.81,3.28 34.81,-23.21 0,-15.04 -9.92,-11.6 -34.81,-11.6l0 34.81z"/>
   <path class="fil0" d="M3209.91 2483.32c0,16.98 34.82,16.98 34.82,0l0 -23.21 -34.82 0 0 23.21z"/>
   <path class="fil0" d="M138.22 2483.32c0,16.98 34.81,16.98 34.81,0l0 -23.21 -34.81 0 0 23.21z"/>
   <path class="fil0" d="M2033.85 2483.32c0,16.98 34.82,16.98 34.82,0l0 -23.21 -34.82 0 0 23.21z"/>
   <polygon class="fil0" points="2165.39,2796.67 2196.34,2796.67 2196.34,2761.86 2165.39,2761.86 "/>
   <polygon class="fil0" points="347.13,2796.67 378.08,2796.67 378.08,2761.86 347.13,2761.86 "/>
   <path class="fil0" d="M1983.56 2494.93l19.35 0c8.91,0 11.6,-2.69 11.6,-11.61l0 -23.21 -30.95 0 0 34.81 0 0.01z"/>
   <path class="fil0" d="M192.39 2494.93l19.35 0c8.91,0 11.6,-2.69 11.6,-11.61l0 -23.21 -30.95 0 0 34.81 0 0.01z"/>
   <path class="fil0" d="M3264.08 2494.93l19.35 0c8.91,0 11.6,-2.69 11.6,-11.61l0 -23.21 -30.95 0 0 34.81 0 0.01z"/>
  </g>
 </g>
</svg>
