<?xml version="1.0" encoding="UTF-8"?>
<!DOCTYPE svg PUBLIC "-//W3C//DTD SVG 1.1//EN" "http://www.w3.org/Graphics/SVG/1.1/DTD/svg11.dtd">
<!-- Creator: CorelDRAW 2019 (64-Bit) -->
<svg xmlns="http://www.w3.org/2000/svg" xml:space="preserve" width="2.5in" height="2.61in" version="1.1" style="shape-rendering:geometricPrecision; text-rendering:geometricPrecision; image-rendering:optimizeQuality; fill-rule:evenodd; clip-rule:evenodd"
viewBox="0 0 2500 2610"
 xmlns:xlink="http://www.w3.org/1999/xlink"
 xmlns:xodm="http://www.corel.com/coreldraw/odm/2003">
 <defs>
  <style type="text/css">
   <![CDATA[
    .fil3 {fill:#606062}
    .fil1 {fill:#939598}
    .fil0 {fill:#F49121}
    .fil2 {fill:#F58634}
   ]]>
  </style>
 </defs>
 <g id="Layer_x0020_1">
  <metadata id="CorelCorpID_0Corel-Layer"/>
  <g id="_1531296521008">
   <path class="fil0" d="M551.04 317.87c-309.69,219.3 -511.89,580.4 -511.89,988.72 0,668.75 542.02,1210.91 1210.77,1210.91 260.43,0 501.46,-82.27 699.03,-222.05l-99.07 -140.07c-169.47,119.94 -376.46,190.47 -599.96,190.47 -573.88,0 -1039.13,-465.25 -1039.13,-1039.27 0,-350.39 173.53,-660.35 439.32,-848.66l-99.07 -140.06 -0 0z"/>
   <path class="fil1" d="M551.04 317.87l99.07 140.07c169.47,-119.94 376.46,-190.47 599.81,-190.47 574.02,0 1039.27,465.25 1039.27,1039.13 0,350.53 -173.52,660.5 -439.32,848.8l99.07 140.06c309.69,-219.3 511.89,-580.4 511.89,-988.87 0,-668.61 -542.16,-1210.77 -1210.91,-1210.77 -260.29,0 -501.46,82.13 -698.88,222.05z"/>
   <path class="fil2" d="M1026.86 1665.39c36.8,4.06 78.22,0 110.37,0 48.38,0 75.9,0 73.58,47.36 -117.18,0 -220.75,-7.82 -216.11,130.07 6.96,118.34 133.4,114.43 246.09,106.46l2.32 -94.59c-48.38,-3.91 -112.69,7.97 -149.48,-7.82l-2.32 -35.48c45.92,-11.88 105.74,-4.06 156.29,-4.06 18.39,35.49 39.11,102.55 53.02,141.95l96.47 0c-6.81,-55.19 -75.9,-236.53 -96.47,-283.9 -41.42,-106.46 -135.72,-106.46 -271.44,-98.49l-2.32 98.49 0 -0z"/>
   <path class="fil3" d="M1112.04 1314.56c78.22,-138.04 243.78,-153.83 411.51,-260.29 115.01,-70.98 266.81,-212.93 292.16,-394.27 -20.71,11.87 -6.96,0 -23.03,19.7 -6.95,7.97 -11.58,15.79 -20.71,23.75 -16.08,19.7 -25.35,23.61 -41.43,39.4 -239.14,248.41 -567.94,343 -600.1,421.79 -9.27,23.75 -20.71,118.34 -18.39,149.91l-0.01 0.01z"/>
   <path class="fil2" d="M1431.56 1953.34l91.98 -4.06 4.64 -114.29c29.98,27.67 23.03,47.37 96.61,82.85 39.11,19.7 94.3,35.49 149.48,31.43l0 -90.67c-71.26,-11.74 -227.7,-43.31 -156.44,-130.07 27.67,-31.57 147.17,-134.13 154.12,-161.65 -181.64,-19.7 -138.04,74.88 -243.78,126.16l-2.32 -126.16 -91.98 0 -2.32 386.45z"/>
   <path class="fil2" d="M684.3 1854.7l0 94.59c117.32,0 206.98,15.79 259.85,-74.89 29.84,-55.19 27.52,-240.44 18.39,-307.51l-89.66 0c-6.96,70.98 4.63,165.56 -2.32,228.71 -11.44,78.8 -103.42,59.1 -186.28,59.1l0.01 -0z"/>
   <path class="fil3" d="M1083.79 1427.4l35.92 -92.99c0,0 -16.8,-27.52 82.42,-57.07 99.22,-29.55 411.94,-145.72 534.48,-259.85 0,0 -109.94,253.48 -424.69,306.35 0,0 -217.56,44.32 -228.14,103.57l0.01 0z"/>
   <path class="fil3" d="M1079.59 1482.3c0,0 35.92,-61.27 88.79,-76.04 52.72,-14.78 283.03,-25.35 392.82,-105.59 0,0 -118.19,145.72 -272.46,152.09 -154.26,6.23 -213.36,27.38 -209.15,29.55z"/>
  </g>
 </g>
</svg>
