<?xml version="1.0" encoding="UTF-8"?>
<!DOCTYPE svg PUBLIC "-//W3C//DTD SVG 1.1//EN" "http://www.w3.org/Graphics/SVG/1.1/DTD/svg11.dtd">
<!-- Creator: CorelDRAW 2019 (64-Bit) -->
<svg xmlns="http://www.w3.org/2000/svg" xml:space="preserve" width="5.92in" height="1.628in" version="1.1" style="shape-rendering:geometricPrecision; text-rendering:geometricPrecision; image-rendering:optimizeQuality; fill-rule:evenodd; clip-rule:evenodd"
viewBox="0 0 5920 1628"
 xmlns:xlink="http://www.w3.org/1999/xlink"
 xmlns:xodm="http://www.corel.com/coreldraw/odm/2003">
 <defs>
  <style type="text/css">
   <![CDATA[
    .str0 {stroke:#FEFEFE;stroke-width:29.52;stroke-miterlimit:2.61313}
    .str1 {stroke:#FEFEFE;stroke-width:6.94;stroke-miterlimit:2.61313}
    .fil0 {fill:#FEFEFE}
    .fil1 {fill:#FEFEFE;fill-rule:nonzero}
   ]]>
  </style>
 </defs>
 <g id="Layer_x0020_1">
  <metadata id="CorelCorpID_0Corel-Layer"/>
  <g id="_1844414425664">
   <path class="fil0 str0" d="M310.78 681.34c-38.81,0 -74.55,-8.04 -107.09,-23.99 -32.53,-16.1 -59.1,-38.81 -79.87,-68.44l73.75 -97.75c15.94,22.87 32.53,40.26 50.09,52.01 17.39,11.75 36.24,17.72 56.52,17.72 54.1,0 81.17,-35.11 81.17,-105.16l0 -301.46 -201.78 0 0 -117.72 333.83 0 0 411.13c0,78.43 -17.56,137.04 -52.5,175.69 -34.94,38.65 -86.31,57.97 -154.11,57.97l0 0.01 -0.02 -0.01zm250.1 -10.95l255.72 -633.84 131.24 0 256.7 633.84 -139.46 0 -209.83 -559.6 52.5 0 -210.8 559.6 -136.07 0zm127.85 -135.76l35.27 -111.43 295.19 0 36.07 111.43 -366.52 0 -0.01 0zm694.55 -9.17l-7.41 -169.25 274.57 -319.66 147.67 0 -247.69 294.21 -73.76 86.96 -93.39 107.74 0.01 0zm-119 144.93l0 -633.84 132.04 0 0 633.84 -132.04 0zm392.77 0l-204.2 -276.18 86.96 -104.19 272.31 380.38 -155.07 0 0 -0.02zm-1174.94 926.37c-45.41,0 -87.12,-8.06 -125.12,-23.99 -38,-16.11 -71.02,-38.81 -99.2,-68.45 -28.02,-29.63 -49.92,-64.26 -65.54,-104.19 -15.63,-39.78 -23.35,-83.58 -23.35,-131.24 0,-47.66 7.73,-91.47 23.35,-131.4 15.63,-39.78 37.53,-74.55 66.02,-104.02 28.33,-29.64 61.68,-52.5 100,-68.45 38.33,-15.94 80.35,-23.99 126.25,-23.99 50.88,0 96.62,9.34 137.37,28.02 40.74,18.85 75.05,45.9 102.91,81.49l-85.35 86.96c-20.61,-24.15 -43.31,-42.03 -67.96,-53.78 -24.64,-11.75 -51.37,-17.71 -80.35,-17.71 -27.86,0 -53.31,4.83 -76.33,14.49 -22.87,9.67 -42.68,23.51 -59.43,41.71 -16.59,18.04 -29.46,39.46 -38.49,64.26 -9.01,24.8 -13.52,52.17 -13.52,82.44 0,29.64 4.51,56.69 13.52,81.49 9.02,24.8 21.89,46.38 38.49,64.73 16.76,18.36 36.4,32.53 59.1,42.19 22.7,9.5 47.66,14.33 75.05,14.33 26.24,0 51.69,-4.67 76.65,-14.01 24.8,-9.34 48.96,-25.13 72.47,-47.5l75.52 105.97c-31.24,25.93 -67.47,45.89 -108.7,59.75 -41.23,13.85 -82.44,20.93 -123.36,20.93l0 -0.01 0 -0.01zm110.63 -99.69l0 -238.17 121.43 0 0 257.17 -121.43 -19 0 0.01zm366.52 -289.87l276.34 0 0 114.17 -276.34 0 0 -114.17zm9.82 260.89l312.42 0 0 117.72 -444.31 0 0 -634 433.67 0 0 117.87 -301.79 0 0 398.41 0 0 0.01 0.01zm418.21 117.72l0 -634 109.82 0 338.66 456.54 -53.31 0 0 -456.54 131.24 0 0 634 -109.02 0 -339.46 -456.38 53.3 0 0 456.38 -131.24 0 0.01 0zm784.74 -378.6l276.34 0 0 114.17 -276.34 0 0 -114.17zm9.83 260.89l312.41 0 0 117.72 -444.46 0 0 -634 433.83 0 0 117.87 -301.78 0 0 398.41 0 0.01zm418.22 117.72l0 -634 248.48 0c51.38,0 95.66,9.33 132.69,27.7 37.2,18.36 65.87,44.77 86.15,79.23 20.28,34.46 30.43,75.53 30.43,123.2 0,47.03 -10.15,87.61 -30.43,121.75 -20.29,34.14 -48.96,60.23 -86.15,78.43 -37.05,18.04 -81.33,27.05 -132.69,27.05l-174.72 0 59.1 -64.26 0 240.91 -132.85 0 0 -0.01 -0 0.01zm364.9 0l-143.48 -229.96 141.71 0 145.26 229.96 -143.48 0 0 0zm-232.05 -224.65l-59.1 -68.76 167.31 0c40.9,0 71.5,-9.82 91.8,-29.46 20.29,-19.64 30.28,-46.54 30.28,-81 0,-35.11 -9.99,-62.16 -30.28,-81.49 -20.29,-19.32 -50.88,-28.99 -91.8,-28.99l-167.31 0 59.1 -69.73 0 359.44 0 -0.01zm394.38 224.65l255.72 -634 131.24 0 256.7 634 -139.46 0 -209.83 -559.6 52.5 0 -210.8 559.6 -136.07 0zm127.86 -135.75l35.26 -111.44 295.19 0 36.07 111.44 -366.52 0 -0.01 0zm665.89 135.75l0 -514.35 -183.75 0 0 -119.65 500.18 0 0 119.65 -183.75 0 0 514.35 -132.69 0 0 0 0.01 0zm387.77 0l0 -634 132.86 0 0 634 -132.86 0zm547.7 10.95c-45.41,0 -87.28,-8.22 -125.77,-24.48 -38.65,-16.43 -71.98,-39.3 -100.17,-68.92 -28.02,-29.46 -49.92,-64.26 -65.54,-104.02 -15.63,-39.94 -23.36,-83.42 -23.36,-130.44 0,-47.18 7.74,-90.66 23.36,-130.44 15.63,-39.78 37.52,-74.56 66.02,-104.19 28.34,-29.47 61.84,-52.51 100.01,-68.76 38.33,-16.26 79.87,-24.48 124.64,-24.48 45.41,0 87.13,8.22 125.12,24.48 37.85,16.26 71.02,39.29 99.2,68.76 28.02,29.64 50.09,64.26 65.87,103.7 15.94,39.61 23.83,83.25 23.83,130.92 0,47.03 -7.89,90.66 -23.83,130.76 -15.78,40.26 -37.85,74.89 -65.87,104.19 -28.18,29.31 -61.35,52.01 -99.2,68.44 -38,16.26 -79.55,24.48 -124.31,24.48l-0.01 0 0 0zm-0.81 -125.12c25.77,0 49.28,-4.83 70.86,-14.33 21.74,-9.67 40.59,-23.67 57.01,-41.71 16.43,-18.2 29.15,-39.61 38.17,-64.41 9.01,-24.64 13.52,-52.17 13.52,-82.3 0,-30.27 -4.51,-57.65 -13.52,-82.44 -9.01,-24.8 -21.58,-46.22 -37.68,-64.26 -16.1,-18.2 -35.1,-32.05 -57.01,-41.71 -21.9,-9.66 -45.57,-14.5 -71.34,-14.5 -25.77,0 -49.28,4.83 -70.86,14.5 -21.58,9.67 -40.59,23.51 -57.01,41.71 -16.42,18.04 -29.15,39.46 -38.17,64.26 -9.01,24.8 -13.52,52.17 -13.52,82.44 0,29.63 4.51,56.85 13.52,81.97 9.02,24.96 21.58,46.54 37.68,64.73 16.1,18.04 35.11,32.05 57.01,41.71 21.9,9.5 45.57,14.33 71.34,14.33l0 0zm414.03 114.17l0 -634 110 0 338.66 456.54 -53.3 0 0 -456.54 131.09 0 0 634 -109.02 0 -339.46 -456.38 53.31 0 0 456.38 -131.26 0 0 0z"/>
   <path id="_1" class="fil1 str1" d="M310.78 681.34c-38.81,0 -74.55,-8.04 -107.09,-23.99 -32.53,-16.1 -59.1,-38.81 -79.87,-68.44l73.75 -97.75c15.94,22.87 32.53,40.26 50.09,52.01 17.39,11.75 36.24,17.72 56.52,17.72 54.1,0 81.17,-35.11 81.17,-105.16l0 -301.46 -201.78 0 0 -117.72 333.83 0 0 411.13c0,78.43 -17.56,137.04 -52.5,175.69 -34.94,38.65 -86.31,57.97 -154.11,57.97l0 0.01 -0.02 -0.01zm250.1 -10.95l255.72 -633.84 131.24 0 256.7 633.84 -139.46 0 -209.83 -559.6 52.5 0 -210.8 559.6 -136.07 0zm127.85 -135.76l35.27 -111.43 295.19 0 36.07 111.43 -366.52 0 -0.01 0zm694.55 -9.17l-7.41 -169.25 274.57 -319.66 147.67 0 -247.69 294.21 -73.76 86.96 -93.39 107.74 0.01 0zm-119 144.93l0 -633.84 132.04 0 0 633.84 -132.04 0zm392.77 0l-204.2 -276.18 86.96 -104.19 272.31 380.38 -155.07 0 0 -0.02zm-1174.94 926.37c-45.41,0 -87.12,-8.06 -125.12,-23.99 -38,-16.11 -71.02,-38.81 -99.2,-68.45 -28.02,-29.63 -49.92,-64.26 -65.54,-104.19 -15.63,-39.78 -23.35,-83.58 -23.35,-131.24 0,-47.66 7.73,-91.47 23.35,-131.4 15.63,-39.78 37.53,-74.55 66.02,-104.02 28.33,-29.64 61.68,-52.5 100,-68.45 38.33,-15.94 80.35,-23.99 126.25,-23.99 50.88,0 96.62,9.34 137.37,28.02 40.74,18.85 75.05,45.9 102.91,81.49l-85.35 86.96c-20.61,-24.15 -43.31,-42.03 -67.96,-53.78 -24.64,-11.75 -51.37,-17.71 -80.35,-17.71 -27.86,0 -53.31,4.83 -76.33,14.49 -22.87,9.67 -42.68,23.51 -59.43,41.71 -16.59,18.04 -29.46,39.46 -38.49,64.26 -9.01,24.8 -13.52,52.17 -13.52,82.44 0,29.64 4.51,56.69 13.52,81.49 9.02,24.8 21.89,46.38 38.49,64.73 16.76,18.36 36.4,32.53 59.1,42.19 22.7,9.5 47.66,14.33 75.05,14.33 26.24,0 51.69,-4.67 76.65,-14.01 24.8,-9.34 48.96,-25.13 72.47,-47.5l75.52 105.97c-31.24,25.93 -67.47,45.89 -108.7,59.75 -41.23,13.85 -82.44,20.93 -123.36,20.93l0 -0.01 0 -0.01zm110.63 -99.69l0 -238.17 121.43 0 0 257.17 -121.43 -19 0 0.01zm366.52 -289.87l276.34 0 0 114.17 -276.34 0 0 -114.17zm9.82 260.89l312.42 0 0 117.72 -444.31 0 0 -634 433.67 0 0 117.87 -301.79 0 0 398.41 0 0 0.01 0.01zm418.21 117.72l0 -634 109.82 0 338.66 456.54 -53.31 0 0 -456.54 131.24 0 0 634 -109.02 0 -339.46 -456.38 53.3 0 0 456.38 -131.24 0 0.01 0zm784.74 -378.6l276.34 0 0 114.17 -276.34 0 0 -114.17zm9.83 260.89l312.41 0 0 117.72 -444.46 0 0 -634 433.83 0 0 117.87 -301.78 0 0 398.41 0 0.01zm418.22 117.72l0 -634 248.48 0c51.38,0 95.66,9.33 132.69,27.7 37.2,18.36 65.87,44.77 86.15,79.23 20.28,34.46 30.43,75.53 30.43,123.2 0,47.03 -10.15,87.61 -30.43,121.75 -20.29,34.14 -48.96,60.23 -86.15,78.43 -37.05,18.04 -81.33,27.05 -132.69,27.05l-174.72 0 59.1 -64.26 0 240.91 -132.85 0 0 -0.01 -0 0.01zm364.9 0l-143.48 -229.96 141.71 0 145.26 229.96 -143.48 0 0 0zm-232.05 -224.65l-59.1 -68.76 167.31 0c40.9,0 71.5,-9.82 91.8,-29.46 20.29,-19.64 30.28,-46.54 30.28,-81 0,-35.11 -9.99,-62.16 -30.28,-81.49 -20.29,-19.32 -50.88,-28.99 -91.8,-28.99l-167.31 0 59.1 -69.73 0 359.44 0 -0.01zm394.38 224.65l255.72 -634 131.24 0 256.7 634 -139.46 0 -209.83 -559.6 52.5 0 -210.8 559.6 -136.07 0zm127.86 -135.75l35.26 -111.44 295.19 0 36.07 111.44 -366.52 0 -0.01 0zm665.89 135.75l0 -514.35 -183.75 0 0 -119.65 500.18 0 0 119.65 -183.75 0 0 514.35 -132.69 0 0 0 0.01 0zm387.77 0l0 -634 132.86 0 0 634 -132.86 0zm547.7 10.95c-45.41,0 -87.28,-8.22 -125.77,-24.48 -38.65,-16.43 -71.98,-39.3 -100.17,-68.92 -28.02,-29.46 -49.92,-64.26 -65.54,-104.02 -15.63,-39.94 -23.36,-83.42 -23.36,-130.44 0,-47.18 7.74,-90.66 23.36,-130.44 15.63,-39.78 37.52,-74.56 66.02,-104.19 28.34,-29.47 61.84,-52.51 100.01,-68.76 38.33,-16.26 79.87,-24.48 124.64,-24.48 45.41,0 87.13,8.22 125.12,24.48 37.85,16.26 71.02,39.29 99.2,68.76 28.02,29.64 50.09,64.26 65.87,103.7 15.94,39.61 23.83,83.25 23.83,130.92 0,47.03 -7.89,90.66 -23.83,130.76 -15.78,40.26 -37.85,74.89 -65.87,104.19 -28.18,29.31 -61.35,52.01 -99.2,68.44 -38,16.26 -79.55,24.48 -124.31,24.48l-0.01 0 0 0zm-0.81 -125.12c25.77,0 49.28,-4.83 70.86,-14.33 21.74,-9.67 40.59,-23.67 57.01,-41.71 16.43,-18.2 29.15,-39.61 38.17,-64.41 9.01,-24.64 13.52,-52.17 13.52,-82.3 0,-30.27 -4.51,-57.65 -13.52,-82.44 -9.01,-24.8 -21.58,-46.22 -37.68,-64.26 -16.1,-18.2 -35.1,-32.05 -57.01,-41.71 -21.9,-9.66 -45.57,-14.5 -71.34,-14.5 -25.77,0 -49.28,4.83 -70.86,14.5 -21.58,9.67 -40.59,23.51 -57.01,41.71 -16.42,18.04 -29.15,39.46 -38.17,64.26 -9.01,24.8 -13.52,52.17 -13.52,82.44 0,29.63 4.51,56.85 13.52,81.97 9.02,24.96 21.58,46.54 37.68,64.73 16.1,18.04 35.11,32.05 57.01,41.71 21.9,9.5 45.57,14.33 71.34,14.33l0 0zm414.03 114.17l0 -634 110 0 338.66 456.54 -53.3 0 0 -456.54 131.09 0 0 634 -109.02 0 -339.46 -456.38 53.31 0 0 456.38 -131.26 0 0 0z"/>
  </g>
 </g>
 <g id="Layer_x0020_1_0">
  <metadata id="CorelCorpID_1Corel-Layer"/>
 </g>
</svg>
